<?xml version="1.0" encoding="UTF-8"?>
<svg version="1.1" xmlns="http://www.w3.org/2000/svg" width="1536" height="1024">
<path d="M0 0 C506.88 0 1013.76 0 1536 0 C1536 337.92 1536 675.84 1536 1024 C1029.12 1024 522.24 1024 0 1024 C0 686.08 0 348.16 0 0 Z " fill="#000000" transform="translate(0,0)"/>
<path d="M0 0 C2.61523163 1.20756993 5.19006533 2.47793189 7.76248169 3.7742157 C8.72368927 4.24858063 9.68489685 4.72294556 10.67523193 5.21168518 C13.78696557 6.74962168 16.89184687 8.30088088 19.99685669 9.8523407 C22.13061401 10.90986846 24.26489326 11.96634377 26.39968872 13.02177429 C29.5767898 14.5927122 32.7535283 16.16433368 35.92840576 17.73976135 C45.15701476 22.3181663 54.43276894 26.79077072 63.74002075 31.20683289 C79.26124226 38.61672626 79.26124226 38.61672626 81.74685669 41.1023407 C81.88349827 43.37536481 81.94888418 45.65268632 81.98733521 47.92948914 C82.00033157 48.64336792 82.01332794 49.3572467 82.02671814 50.09275818 C82.15354323 57.56762459 82.21020171 65.04363217 82.26174927 72.51933289 C82.28850113 76.06814281 82.33723175 79.61561073 82.40530396 83.16386414 C82.48722529 87.44456337 82.52992816 91.72398395 82.54481316 96.0054245 C82.55706855 97.63703233 82.58312005 99.2685974 82.62326241 100.89975739 C82.92096302 113.63545055 82.92096302 113.63545055 80.12477112 117.12892151 C78.03466948 118.47178071 76.09364972 119.30381012 73.74685669 120.1023407 C72.71939331 120.65615417 71.69192993 121.20996765 70.6333313 121.78056335 C69.64856812 122.2708905 68.66380493 122.76121765 67.64920044 123.2664032 C66.53021362 123.82529236 65.41122681 124.38418152 64.2583313 124.96000671 C62.48921387 125.83483704 62.48921387 125.83483704 60.68435669 126.7273407 C59.43242055 127.34952559 58.18054979 127.97184205 56.92874146 128.59428406 C47.54773217 133.24967286 38.11968119 137.80331684 28.65310669 142.2820282 C24.88124504 144.07094612 21.12867367 145.89433327 17.38905334 147.74975586 C14.92618892 148.97116165 12.45915759 150.18402936 9.99200439 151.39674377 C8.22515544 152.26968343 6.46431362 153.15474838 4.7036438 154.04008484 C3.62348999 154.56980896 2.54333618 155.09953308 1.43045044 155.64530945 C0.47710815 156.11992615 -0.47623413 156.59454285 -1.45846558 157.08354187 C-6.24160529 158.82723385 -9.15817768 158.54923079 -13.87399292 156.6245575 C-15.22401898 155.94574051 -16.56756637 155.25393479 -17.90548706 154.55155945 C-18.63375702 154.18183517 -19.36202698 153.8121109 -20.11236572 153.43118286 C-22.47740055 152.22805027 -24.83379256 151.00891479 -27.19064331 149.7898407 C-29.64663506 148.53611457 -32.10480179 147.28673033 -34.56318665 146.03770447 C-36.19273835 145.20956547 -37.82161707 144.38010089 -39.44981384 143.54930115 C-45.76964512 140.32871263 -52.14494259 137.24195899 -58.56564331 134.2273407 C-66.48162982 130.48702622 -74.2962816 126.57617033 -82.06564331 122.5398407 C-83.05797974 122.02631042 -84.05031616 121.51278015 -85.07272339 120.98368835 C-85.98433228 120.50592957 -86.89594116 120.02817078 -87.83517456 119.53593445 C-88.64188599 119.11368591 -89.44859741 118.69143738 -90.27975464 118.25639343 C-92.25314331 117.1023407 -92.25314331 117.1023407 -94.25314331 115.1023407 C-94.52729797 112.11738586 -94.52729797 112.11738586 -94.55953979 108.2375946 C-94.56786331 107.53171707 -94.57618683 106.82583954 -94.58476257 106.09857178 C-94.60891238 103.75862659 -94.61764081 101.4189599 -94.62423706 99.0789032 C-94.63320002 97.45466527 -94.6423218 95.8304282 -94.65159607 94.20619202 C-94.66810243 90.79818208 -94.67578908 87.39027057 -94.67868042 83.98222351 C-94.68406434 79.61485234 -94.72173654 75.2484061 -94.76742458 70.88129616 C-94.79716729 67.52524947 -94.80440336 64.16942617 -94.80540657 60.81325912 C-94.80961491 59.20327394 -94.82207392 57.59328844 -94.84292412 55.98343277 C-94.86978172 53.73022261 -94.86503223 51.47916432 -94.85250854 49.22587585 C-94.85757919 47.94395355 -94.86264984 46.66203125 -94.86787415 45.34126282 C-94.25314331 42.1023407 -94.25314331 42.1023407 -91.97625732 39.79804993 C-89.70240706 38.38210155 -87.48275561 37.03522417 -85.08395386 35.84745789 C-84.295103 35.45314575 -83.50625214 35.05883362 -82.6934967 34.65257263 C-81.85079727 34.23896484 -81.00809784 33.82535706 -80.13986206 33.3992157 C-79.25264969 32.95773193 -78.36543732 32.51624817 -77.45133972 32.06138611 C-74.61722087 30.6526852 -71.77906225 29.25235372 -68.94064331 27.8523407 C-67.07513118 26.92711927 -65.20989414 26.00134297 -63.34494019 25.07499695 C-59.69691424 23.26382914 -56.04743801 21.45563865 -52.396698 19.64994812 C-45.33756445 16.15660857 -38.29505102 12.63023518 -31.25314331 9.1023407 C-29.63604558 8.29356743 -28.01887537 7.48493905 -26.40158081 6.67655945 C-25.75833862 6.35493835 -25.11509644 6.03331726 -24.45236206 5.70195007 C-21.38595581 4.16874695 -18.31954956 2.63554382 -15.25314331 1.1023407 C-14.25540894 0.51066101 -13.25767456 -0.08101868 -12.22970581 -0.69062805 C-7.80403557 -2.4852896 -4.31666297 -1.71977195 0 0 Z " fill="#010101" transform="translate(866.2531433105469,311.8976593017578)"/>
<path d="M0 0 C0.69814316 0.34219574 1.39628632 0.68439148 2.11558533 1.03695679 C4.39009849 2.15532363 6.65587965 3.29026908 8.921875 4.42578125 C10.49861617 5.20533483 12.07585081 5.98389108 13.65356445 6.76147461 C17.59913646 8.70976407 21.53761123 10.67190347 25.47344971 12.63977051 C28.12383714 13.96411802 30.77697397 15.28288263 33.43031311 16.6013031 C39.28393591 19.51061832 45.12713017 22.44025058 50.96582031 25.37939453 C53.47641687 26.64012896 55.99084157 27.8926752 58.5078125 29.140625 C59.23331299 29.5008374 59.95881348 29.8610498 60.70629883 30.23217773 C62.53934688 31.14153021 64.37314473 32.04937088 66.20703125 32.95703125 C68.96659556 34.37570242 71.67932307 35.83887241 74.38842773 37.34960938 C75.19247543 37.79759888 75.99652313 38.24558838 76.82493591 38.70715332 C77.43442581 39.04742554 78.04391571 39.38769775 78.671875 39.73828125 C78.76454919 49.05676541 78.8356266 58.37509097 78.87912369 67.69393539 C78.90000003 72.02105739 78.92831812 76.34786413 78.97363281 80.67480469 C79.01708952 84.85045724 79.04101175 89.02580655 79.05138397 93.20166779 C79.05877572 94.79491195 79.07321021 96.38813949 79.09479523 97.98125458 C79.12382827 100.21280294 79.12783126 102.44309789 79.12597656 104.67480469 C79.13485901 105.94499451 79.14374146 107.21518433 79.15289307 108.52386475 C78.58468491 112.32093141 77.65937077 113.41923265 74.671875 115.73828125 C72.19604492 117.21118164 72.19604492 117.21118164 69.40234375 118.5859375 C68.35997559 119.10325439 67.31760742 119.62057129 66.24365234 120.15356445 C65.12684082 120.697146 64.0100293 121.24072754 62.859375 121.80078125 C61.7038916 122.37078857 60.5484082 122.9407959 59.35791016 123.52807617 C50.82850229 127.72283826 42.26007967 131.83670553 33.67456055 135.9152832 C28.1413816 138.5451763 22.64189568 141.22963502 17.171875 143.98828125 C15.90905275 144.61888741 14.6460362 145.24910465 13.3828125 145.87890625 C11.48339013 146.82610364 9.58945169 147.78090412 7.70410156 148.75585938 C5.74369663 149.76823899 3.7718937 150.75478209 1.796875 151.73828125 C0.66507813 152.31578125 -0.46671875 152.89328125 -1.6328125 153.48828125 C-7.66070079 155.52731323 -13.67642168 155.75608584 -19.58666992 153.16870117 C-21.00440749 152.45575676 -22.41154696 151.72143176 -23.80859375 150.96875 C-24.57586792 150.57669373 -25.34314209 150.18463745 -26.13366699 149.78070068 C-28.60413001 148.51378857 -31.05940597 147.22005643 -33.515625 145.92578125 C-35.22581473 145.04341273 -36.93716901 144.1632978 -38.6496582 143.28540039 C-41.19947417 141.97786891 -43.74848805 140.66902133 -46.29362488 139.35240173 C-52.80504108 135.9850517 -59.37707553 132.78597472 -66.015625 129.67578125 C-73.09216312 126.32390631 -80.11914234 122.89112656 -87.078125 119.30078125 C-87.87178467 118.89915771 -88.66544434 118.49753418 -89.4831543 118.08374023 C-90.21058838 117.70290283 -90.93802246 117.32206543 -91.6875 116.9296875 C-92.32139648 116.60170166 -92.95529297 116.27371582 -93.60839844 115.93579102 C-95.8233377 114.39344617 -96.92416029 113.06475663 -98.328125 110.73828125 C-98.74272156 107.59547424 -98.74272156 107.59547424 -98.7956543 103.84594727 C-98.80894272 103.16089111 -98.82223114 102.47583496 -98.83592224 101.77001953 C-98.87454196 99.51062381 -98.89019952 97.2518716 -98.90234375 94.9921875 C-98.91706742 93.4180436 -98.93194701 91.84390115 -98.94697571 90.26976013 C-98.97394806 86.97203473 -98.98751119 83.67453447 -98.99389648 80.37670898 C-99.00477561 76.15459075 -99.06651416 71.93485724 -99.1406126 67.7134409 C-99.18902068 64.46282418 -99.20142425 61.21278223 -99.20395851 57.96183586 C-99.21118333 56.40563176 -99.23163468 54.84942984 -99.26566124 53.29358101 C-99.50896145 41.2505296 -99.50896145 41.2505296 -96.83328247 37.82389832 C-94.72014337 36.45051536 -92.69198311 35.6060851 -90.328125 34.73828125 C-88.75624343 33.93254306 -87.19196471 33.11183675 -85.63476562 32.27807617 C-83.9200169 31.4208581 -82.20311592 30.56793529 -80.484375 29.71875 C-79.55701538 29.25648514 -78.62965576 28.79422028 -77.67419434 28.31794739 C-74.72737853 26.85008942 -71.77783481 25.38781343 -68.828125 23.92578125 C-66.88002163 22.95675546 -64.93210342 21.98735733 -62.984375 21.01757812 C-59.19352811 19.13066511 -55.40165156 17.24584767 -51.60888672 15.36279297 C-46.89914018 13.02361637 -42.19451484 10.67436047 -37.4921875 8.3203125 C-35.10430036 7.12603448 -32.71621564 5.93215236 -30.328125 4.73828125 C-29.42739258 4.28735107 -28.52666016 3.8364209 -27.59863281 3.37182617 C-25.47291526 2.31406664 -23.34017913 1.27288682 -21.203125 0.23828125 C-20.51476562 -0.1071875 -19.82640625 -0.45265625 -19.1171875 -0.80859375 C-18.44171875 -1.1334375 -17.76625 -1.45828125 -17.0703125 -1.79296875 C-16.20188721 -2.21932617 -16.20188721 -2.21932617 -15.31591797 -2.65429688 C-9.51892786 -4.42571807 -5.16872536 -2.62038327 0 0 Z " fill="#010101" transform="translate(582.328125,445.26171875)"/>
<path d="M0 0 C3.1529338 1.40173376 6.222297 2.9176717 9.29711914 4.4831543 C10.41143311 5.03487305 11.52574707 5.5865918 12.67382812 6.1550293 C15.88887454 7.75032224 19.09361147 9.36484962 22.29711914 10.9831543 C23.74551457 11.70356199 25.19460485 12.4225766 26.64477539 13.1394043 C29.79257155 14.698915 32.93146718 16.27539057 36.06762695 17.8581543 C40.78680203 20.23944632 45.50974612 22.61319001 50.23461914 24.9831543 C51.25773193 25.49668457 52.28084473 26.01021484 53.33496094 26.53930664 C60.26738914 30.00524417 67.2396025 33.3683168 74.296875 36.57299805 C77.03285844 37.83006217 79.14894605 38.83498121 81.29711914 40.9831543 C81.53762817 44.0329895 81.53762817 44.0329895 81.52416992 48.00317383 C81.52446198 48.7252301 81.52475403 49.44728638 81.52505493 50.19122314 C81.52365922 52.58292572 81.50808697 54.97431851 81.49243164 57.3659668 C81.48870236 59.02220489 81.48585499 60.67844519 81.4838562 62.33468628 C81.47621303 66.6978767 81.45655874 71.06093437 81.43444824 75.42407227 C81.41400449 79.87473759 81.40485764 84.32542432 81.39477539 88.77612305 C81.37331343 97.51186111 81.33916932 106.2474912 81.29711914 114.9831543 C63.05830228 124.67892615 44.60515138 133.92288256 26.10249329 143.10276794 C21.49449521 145.38934683 16.89265742 147.68661107 12.30508423 150.01390076 C9.70482854 151.32934337 7.09411377 152.62366015 4.48461914 153.9206543 C3.18282715 154.59245728 3.18282715 154.59245728 1.85473633 155.27783203 C-3.10602985 157.70702618 -6.19021717 158.5845985 -11.70288086 156.9831543 C-14.83237273 155.75358658 -17.8203594 154.29646895 -20.82788086 152.7956543 C-22.24218384 152.10379028 -22.24218384 152.10379028 -23.68505859 151.39794922 C-25.9547934 150.28682381 -28.22238492 149.17185926 -30.48852539 148.0534668 C-34.58197251 146.03747932 -38.68816022 144.04819484 -42.79528809 142.06025696 C-46.78121542 140.13060178 -50.76476703 138.19607268 -54.74798584 136.26083374 C-56.73946131 135.29381786 -58.73151546 134.3279927 -60.72418213 133.36343384 C-90.98325632 118.70277883 -90.98325632 118.70277883 -94.70288086 114.9831543 C-94.82365452 112.73507107 -94.87317858 110.48314547 -94.89575195 108.23193359 C-94.90392944 107.52620209 -94.91210693 106.82047058 -94.92053223 106.09335327 C-94.94542982 103.74803528 -94.96191384 101.40277801 -94.97631836 99.05737305 C-94.98164204 98.25790567 -94.98696571 97.4584383 -94.99245071 96.63474464 C-95.0192022 92.40266502 -95.03857 88.1706151 -95.05297852 83.93847656 C-95.06962505 79.56327888 -95.11439621 75.18883469 -95.16534996 70.81392193 C-95.19898436 67.45360943 -95.21055175 64.09347648 -95.2162056 60.73301125 C-95.22292951 59.12021951 -95.23818129 57.50744006 -95.26209641 55.89481163 C-95.29367007 53.63676778 -95.29379779 51.38076465 -95.28637695 49.12255859 C-95.29446381 47.83762009 -95.30255066 46.55268158 -95.31088257 45.22880554 C-94.70288086 41.9831543 -94.70288086 41.9831543 -92.3626709 39.64620972 C-89.31716997 37.74198542 -86.2419304 36.07573984 -83.02319336 34.47924805 C-82.38251923 34.15966629 -81.74184509 33.84008453 -81.08175659 33.51081848 C-79.00009865 32.47465852 -76.91416038 31.44747266 -74.82788086 30.4206543 C-73.37458322 29.69997368 -71.92145972 28.97894181 -70.46850586 28.25756836 C-61.34574085 23.737324 -52.18998153 19.28748057 -42.97851562 14.95043945 C-38.01436065 12.60507807 -33.10891466 10.17743936 -28.23803711 7.64331055 C-27.1571582 7.08546875 -26.0762793 6.52762695 -24.96264648 5.95288086 C-22.89034948 4.87875501 -20.82472288 3.79162095 -18.76733398 2.68920898 C-12.1711921 -0.7176643 -7.16733401 -2.69640919 0 0 Z " fill="#010101" transform="translate(676.702880859375,312.016845703125)"/>
<path d="M0 0 C0.79644928 0.39128082 1.59289856 0.78256165 2.41348267 1.18569946 C5.01847395 2.46912929 7.61469891 3.76928009 10.2109375 5.0703125 C12.02396725 5.96900093 13.83745044 6.8667751 15.65136719 7.76367188 C19.40875361 9.6242769 23.16229608 11.49234491 26.91308594 13.36621094 C31.55906658 15.68630986 36.21350561 17.98870543 40.87203979 20.28347778 C44.36347052 22.00410471 47.85192614 23.73069409 51.33953857 25.45904541 C52.9947443 26.27873667 54.65070256 27.0969102 56.30743408 27.91351318 C58.61689115 29.0534484 60.92220909 30.20135265 63.2265625 31.3515625 C64.23947861 31.84881332 64.23947861 31.84881332 65.27285767 32.35610962 C69.11904873 34.28815694 72.52587402 36.15546135 75.5859375 39.1953125 C76.22758484 42.33811951 76.22758484 42.33811951 76.2487793 46.08764648 C76.25914719 46.77270264 76.26951508 47.45775879 76.28019714 48.16357422 C76.30725583 50.42346468 76.29760963 52.6814126 76.28515625 54.94140625 C76.29106597 56.51555421 76.29831304 58.08969766 76.30683899 59.66383362 C76.31871782 62.96175566 76.31201561 66.25900277 76.29272461 69.55688477 C76.26984952 73.77871179 76.29659961 77.99852461 76.33778667 82.22015285 C76.36339211 85.47082646 76.36077745 88.72101995 76.34989357 91.97175789 C76.3484087 93.52786143 76.35607609 95.0840021 76.37314415 96.64001274 C76.39316501 98.8191025 76.37469535 100.99465595 76.34643555 103.17358398 C76.34467819 104.41172348 76.34292084 105.64986298 76.34111023 106.92552185 C75.30723938 111.40203577 73.32166534 112.64663479 69.5859375 115.1953125 C67.02055359 116.70289612 67.02055359 116.70289612 64.4362793 117.95922852 C63.45632492 118.44065811 62.47637054 118.92208771 61.46672058 119.41810608 C60.41680435 119.92337326 59.36688812 120.42864044 58.28515625 120.94921875 C57.17654739 121.4907811 56.06793854 122.03234344 54.92573547 122.59031677 C51.37871942 124.3206431 47.82619592 126.03931273 44.2734375 127.7578125 C41.95861991 128.88531975 39.64416341 130.01356866 37.33007812 131.14257812 C32.72006458 133.39049174 28.10323275 135.62353617 23.48193359 137.84814453 C18.83950382 140.08751157 14.22802352 142.37868224 9.63134766 144.71044922 C7.95332817 145.54901711 7.95332817 145.54901711 6.2414093 146.40452576 C4.13478653 147.45794065 2.03548645 148.52618825 -0.05451965 149.61219788 C-6.29465373 152.70356088 -11.43511815 154.30981549 -18.4140625 153.1953125 C-21.93823242 151.99291992 -21.93823242 151.99291992 -25.14453125 150.30078125 C-25.73378387 149.99769043 -26.3230365 149.69459961 -26.93014526 149.38232422 C-28.83055199 148.40035133 -30.71534918 147.39173397 -32.6015625 146.3828125 C-33.93359319 145.69011068 -35.26686439 144.99978949 -36.60131836 144.31176758 C-38.62051248 143.27030103 -40.6388532 142.22748637 -42.65339661 141.17704773 C-48.53200646 138.1121191 -54.483542 135.21747581 -60.4765625 132.3828125 C-61.39147461 131.94718994 -62.30638672 131.51156738 -63.24902344 131.06274414 C-67.89868191 128.85120987 -72.55689279 126.65834106 -77.21875 124.47265625 C-78.16484131 124.02704346 -79.11093262 123.58143066 -80.08569336 123.12231445 C-81.86041868 122.28688236 -83.63711441 121.45561601 -85.41625977 120.62963867 C-99.51810389 113.98722972 -99.51810389 113.98722972 -101.4140625 110.1953125 C-101.50614708 107.91805076 -101.53155848 105.63800603 -101.52758789 103.35888672 C-101.52780693 102.30506302 -101.52780693 102.30506302 -101.5280304 101.22994995 C-101.52733264 98.90326877 -101.51954669 96.57666723 -101.51171875 94.25 C-101.50985408 92.63860111 -101.50843041 91.02720166 -101.50743103 89.415802 C-101.5036097 85.17102498 -101.49378268 80.92628208 -101.48272705 76.68151855 C-101.47250468 72.35148582 -101.46793164 68.02144757 -101.46289062 63.69140625 C-101.45216008 55.19269266 -101.43508825 46.69400682 -101.4140625 38.1953125 C-99.17586619 36.90726923 -96.93663623 35.62108387 -94.69677734 34.3359375 C-94.06694443 33.97322754 -93.43711151 33.61051758 -92.78819275 33.23681641 C-88.29829785 30.66331102 -83.76316355 28.31233704 -79.0390625 26.1953125 C-68.27834638 21.31229846 -57.75344896 15.9422917 -47.27017212 10.4937439 C-43.98930912 8.79149762 -40.70073279 7.10447782 -37.41113281 5.41918945 C-35.72852616 4.5523871 -34.04953752 3.67852972 -32.37402344 2.7980957 C-29.90708674 1.50392986 -27.42806789 0.2361508 -24.9453125 -1.02734375 C-24.20559204 -1.42301041 -23.46587158 -1.81867706 -22.70373535 -2.22633362 C-14.2074555 -6.47900209 -8.08774614 -4.09379743 0 0 Z " fill="#010101" transform="translate(776.4140625,446.8046875)"/>
<path d="M0 0 C1.24418187 0.64764245 2.48215508 1.30730328 3.71484375 1.9765625 C5.13030666 2.71585099 6.54704188 3.45270712 7.96484375 4.1875 C8.71894531 4.5803418 9.47304687 4.97318359 10.25 5.37792969 C14.52288619 7.55432253 18.87388261 9.5654254 23.21484375 11.6015625 C29.83481133 14.72543922 36.33479628 17.96724931 42.75439453 21.4855957 C49.54051764 25.1621026 56.53769283 28.4054271 63.53466797 31.65795898 C77.06198577 38.01120452 77.06198577 38.01120452 80.65234375 41.6015625 C80.77307188 43.81901718 80.82263543 46.04036238 80.84521484 48.26098633 C80.85748108 49.30495323 80.85748108 49.30495323 80.86999512 50.37001038 C80.89489219 52.68286263 80.91137664 54.99565331 80.92578125 57.30859375 C80.93110493 58.09702856 80.9364286 58.88546337 80.9419136 59.69779015 C80.96866494 63.87151493 80.98803274 68.04520962 81.00244141 72.21899414 C81.01908743 76.53366256 81.0638581 80.84756682 81.11481285 85.1619463 C81.14844901 88.47593577 81.16001483 91.7897432 81.16566849 95.10388756 C81.17239198 96.69435142 81.1876427 98.28480285 81.2115593 99.87510109 C81.24313679 102.10202055 81.24326021 104.32687106 81.23583984 106.55395508 C81.2439267 107.82112869 81.25201355 109.08830231 81.26034546 110.39387512 C80.65234375 113.6015625 80.65234375 113.6015625 78.25907898 115.96266174 C75.86155626 117.47002687 73.52885708 118.79379648 70.9609375 119.984375 C70.03410156 120.42040039 69.10726563 120.85642578 68.15234375 121.30566406 C67.14171875 121.77456055 66.13109375 122.24345703 65.08984375 122.7265625 C62.84760744 123.78359749 60.60680976 124.84368764 58.3671875 125.90625 C57.76566864 126.19161621 57.16414978 126.47698242 56.54440308 126.77099609 C47.59268737 131.03632149 38.74958741 135.52496772 29.89596558 139.98931885 C25.552228 142.1795342 21.20215422 144.35598571 16.84179688 146.51293945 C15.34670693 147.25631658 13.85463291 148.00578254 12.36523438 148.76049805 C10.10356902 149.9049754 7.83245651 151.02842941 5.55859375 152.1484375 C4.88235962 152.49626282 4.20612549 152.84408813 3.50939941 153.20245361 C-1.93118094 155.84159136 -6.67635008 156.65361741 -12.65307617 154.94091797 C-13.28834229 154.62010254 -13.9236084 154.29928711 -14.578125 153.96875 C-15.35889404 153.58549561 -16.13966309 153.20224121 -16.9440918 152.80737305 C-17.79914307 152.36820557 -18.65419434 151.92903809 -19.53515625 151.4765625 C-21.54548886 150.48029912 -23.55591483 149.48422411 -25.56640625 148.48828125 C-26.74589844 147.89708496 -27.92539063 147.30588867 -29.140625 146.69677734 C-34.22334244 144.156506 -39.33303258 141.67175348 -44.44140625 139.18359375 C-46.4463871 138.20657715 -48.45135111 137.229526 -50.45629883 136.25244141 C-51.46125397 135.76269836 -52.46620911 135.27295532 -53.50161743 134.76837158 C-60.17840766 131.51242629 -66.85107073 128.24815582 -73.51708984 124.97021484 C-76.43996711 123.53317924 -79.36796818 122.10897349 -82.30712891 120.70556641 C-83.93013916 119.92125244 -83.93013916 119.92125244 -85.5859375 119.12109375 C-86.92652222 118.48264526 -86.92652222 118.48264526 -88.29418945 117.83129883 C-90.34765625 116.6015625 -90.34765625 116.6015625 -92.34765625 113.6015625 C-92.62181091 110.53431702 -92.62181091 110.53431702 -92.65405273 106.71508789 C-92.66237625 106.0188179 -92.67069977 105.32254791 -92.67927551 104.60517883 C-92.70337455 102.30313531 -92.71214676 100.00137504 -92.71875 97.69921875 C-92.72771551 96.09883031 -92.73683734 94.49844273 -92.74610901 92.89805603 C-92.76260063 89.54310061 -92.77029958 86.18824501 -92.77319336 82.83325195 C-92.77858143 78.53428515 -92.81627699 74.23625612 -92.86193752 69.93755436 C-92.89167812 66.63212149 -92.89891623 63.32691544 -92.89991951 60.0213604 C-92.90412684 58.4364943 -92.91658185 56.85162784 -92.93743706 55.26689339 C-92.96429571 53.04970382 -92.95954554 50.8347008 -92.94702148 48.61743164 C-92.95209213 47.35629044 -92.95716278 46.09514923 -92.96238708 44.79579163 C-92.34765625 41.6015625 -92.34765625 41.6015625 -90.28723145 39.41520691 C-86.83574203 37.28572422 -83.34258918 35.37762056 -79.71508789 33.56738281 C-78.96321701 33.18640945 -78.21134613 32.8054361 -77.43669128 32.41291809 C-74.96354329 31.16215687 -72.48601335 29.92040382 -70.0078125 28.6796875 C-68.28046461 27.81119095 -66.55320662 26.94251557 -64.82603455 26.07366943 C-61.21110195 24.25723671 -57.59373526 22.44575799 -53.97485352 20.63720703 C-49.34066122 18.32026357 -44.71495539 15.98689661 -40.09119511 13.64921951 C-36.52907629 11.8514795 -32.96155446 10.06467865 -29.39242363 8.28090668 C-27.68447978 7.42516605 -25.97847787 6.56553799 -24.27449226 5.70194244 C-21.89174845 4.49586271 -19.5018695 3.30525027 -17.10961914 2.11816406 C-16.05972305 1.58057213 -16.05972305 1.58057213 -14.98861694 1.03211975 C-9.46114991 -1.67870648 -5.71678346 -2.38810791 0 0 Z " fill="#010100" transform="translate(1053.34765625,311.3984375)"/>
<path d="M0 0 C2.64202186 1.23818397 5.21464287 2.57316377 7.79296875 3.93896484 C9.78026093 4.96302193 11.76857363 5.98510061 13.7578125 7.00537109 C14.77343262 7.5288916 15.78905273 8.05241211 16.83544922 8.59179688 C21.46587605 10.94481733 26.15858457 13.1599577 30.85546875 15.37646484 C40.24265154 19.83248395 49.55925234 24.42206918 58.85546875 29.06396484 C59.50435059 29.38715698 60.15323242 29.71034912 60.82177734 30.04333496 C79.45820231 39.33193197 79.45820231 39.33193197 80.85546875 42.12646484 C80.97325685 44.38195627 81.02533545 46.64096628 81.04833984 48.89941406 C81.06060608 49.94360001 81.06060608 49.94360001 81.07312012 51.00888062 C81.09796618 53.31629575 81.11448678 55.62364946 81.12890625 57.93115234 C81.13422993 58.71867008 81.1395536 59.50618782 81.1450386 60.31756973 C81.17176507 64.48481524 81.19114269 68.65203081 81.20556641 72.81933594 C81.22222554 77.12612842 81.26701429 81.43215733 81.31793785 85.73866081 C81.35156992 89.0483591 81.36313922 92.35787509 81.36879349 95.66772842 C81.37551581 97.25540131 81.39076351 98.84306179 81.4146843 100.4305687 C81.4462592 102.65259089 81.44638589 104.87253952 81.43896484 107.09472656 C81.4470517 108.35888397 81.45513855 109.62304138 81.46347046 110.92550659 C80.85546875 114.12646484 80.85546875 114.12646484 78.4705658 116.48239136 C75.98812435 118.0430662 73.55599709 119.40491911 70.8984375 120.64208984 C69.9592749 121.08423828 69.0201123 121.52638672 68.05249023 121.98193359 C67.05934814 122.44212891 66.06620605 122.90232422 65.04296875 123.37646484 C62.9539252 124.3597743 60.86538456 125.34415288 58.77734375 126.32958984 C57.75962891 126.80847656 56.74191406 127.28736328 55.69335938 127.78076172 C52.0354504 129.51531043 48.40822741 131.3050077 44.79296875 133.12646484 C44.17566895 133.43680664 43.55836914 133.74714844 42.92236328 134.06689453 C40.89935559 135.08534941 38.87742294 136.10592014 36.85546875 137.12646484 C30.42323966 140.36852576 23.98436357 143.59655966 17.53125 146.796875 C15.79485589 147.65968543 14.06035716 148.52632486 12.328125 149.39746094 C10.03125356 150.55008463 7.72625999 151.68442485 5.41796875 152.81396484 C4.75095947 153.15298828 4.0839502 153.49201172 3.39672852 153.84130859 C-1.01857835 155.96976496 -4.27855967 156.80301704 -9.14453125 156.12646484 C-12.62001379 154.78134893 -15.86087097 153.06937334 -19.14453125 151.31396484 C-21.12662406 150.28863046 -23.10972773 149.26524823 -25.09375 148.24365234 C-26.10356934 147.7199707 -27.11338867 147.19628906 -28.15380859 146.65673828 C-32.71135091 144.32476479 -37.3301017 142.12914153 -41.95703125 139.93896484 C-43.84532 139.03978767 -45.73332816 138.14002108 -47.62109375 137.23974609 C-48.6359082 136.75586426 -49.65072266 136.27198242 -50.69628906 135.7734375 C-56.99804862 132.76354866 -63.29467381 129.74318671 -69.58480835 126.70907593 C-71.07396383 125.99166769 -72.56388539 125.27584733 -74.05459595 124.56167603 C-76.15297796 123.55611107 -78.24863081 122.54505675 -80.34375 121.53271484 C-80.9719162 121.23314377 -81.6000824 120.93357269 -82.24728394 120.62492371 C-88.84721981 117.42040681 -88.84721981 117.42040681 -91.14453125 115.12646484 C-91.67938232 111.99002075 -91.67938232 111.99002075 -91.72558594 108.07226562 C-91.73902039 107.35809479 -91.75245483 106.64392395 -91.76629639 105.90811157 C-91.80431163 103.54571758 -91.81210668 101.1844582 -91.81640625 98.82177734 C-91.82925915 97.17894014 -91.84271564 95.53610756 -91.85675049 93.89328003 C-91.88070995 90.44827666 -91.88811093 87.00367457 -91.88574219 83.55859375 C-91.88533579 79.1469635 -91.939922 74.73791033 -92.00883102 70.32689095 C-92.05334535 66.93297555 -92.06141821 63.53968143 -92.05930328 60.145504 C-92.06401965 58.51955154 -92.0816928 56.89358253 -92.11263275 55.26791763 C-92.33047119 42.63887961 -92.33047119 42.63887961 -89.5859375 39.1388092 C-87.48335835 37.77909607 -85.50413104 36.95271209 -83.14453125 36.12646484 C-81.81649472 35.44486944 -80.49657855 34.74720441 -79.18554688 34.03344727 C-77.80933885 33.34549875 -76.43099695 32.66180586 -75.05078125 31.98193359 C-74.30098999 31.60845291 -73.55119873 31.23497223 -72.77868652 30.85017395 C-70.40251027 29.66761791 -68.02361815 28.4906523 -65.64453125 27.31396484 C-64.08184333 26.5376503 -62.51934202 25.76095998 -60.95703125 24.98388672 C-57.86015192 23.44406177 -54.76224547 21.90633274 -51.66357422 20.37011719 C-47.35304019 18.23186438 -43.04877724 16.08124258 -38.74609375 13.92724609 C-36.8119109 12.95988773 -34.87761503 11.99275596 -32.9432373 11.02578735 C-31.24089415 10.17464466 -29.53889377 9.3228165 -27.83691406 8.47094727 C-24.90395625 7.00982387 -21.96319954 5.56586187 -19.01953125 4.12646484 C-17.55773437 3.39363281 -17.55773437 3.39363281 -16.06640625 2.64599609 C-5.78300895 -2.35560178 -5.78300895 -2.35560178 0 0 Z " fill="#010000" transform="translate(488.14453125,310.87353515625)"/>
<path d="M0 0 C1.38274234 0.65333712 2.75949794 1.31944448 4.13110352 1.99584961 C4.88234497 2.35481827 5.63358643 2.71378693 6.40759277 3.08363342 C8.86391428 4.26072311 11.31188632 5.4541593 13.76000977 6.64819336 C15.46534969 7.46997148 17.17116566 8.29076242 18.87744141 9.1105957 C22.35060798 10.78180903 25.82034921 12.45983986 29.28735352 14.14379883 C33.91655703 16.39156525 38.55551504 18.61840121 43.19750977 20.83959961 C45.24164113 21.82000596 47.28540493 22.80117149 49.32888794 23.78292847 C50.58911232 24.38837548 51.84957908 24.99331829 53.11032104 25.59768677 C59.9983872 28.90498274 66.82123618 32.32039289 73.57641602 35.89038086 C74.22086166 36.2286087 74.86530731 36.56683655 75.52928162 36.91531372 C78.11212442 38.29407463 80.23987697 39.50306057 82.32250977 41.58569336 C82.59666443 44.48799133 82.59666443 44.48799133 82.62890625 48.25097656 C82.63722977 48.93574066 82.64555328 49.62050476 82.65412903 50.32601929 C82.67827968 52.59622847 82.68700801 54.86615047 82.69360352 57.13647461 C82.70256751 58.71347644 82.71168931 60.29047738 82.72096252 61.86747742 C82.73746987 65.17713489 82.74515552 68.48669101 82.74804688 71.79638672 C82.75342616 76.03363595 82.79107854 80.26992973 82.83679104 84.50690937 C82.86656656 87.76606197 82.87377056 91.02498492 82.87477303 94.2842617 C82.87897605 95.84597324 82.89141384 97.40768542 82.91229057 98.96926308 C82.93921209 101.15762611 82.93437958 103.34378134 82.921875 105.53222656 C82.92694565 106.77639847 82.9320163 108.02057037 82.9372406 109.30244446 C82.1524483 113.49398375 80.57462618 114.91903977 77.32250977 117.58569336 C74.43847656 119.31152344 74.43847656 119.31152344 71.27172852 120.85522461 C70.09674805 121.4346582 68.92176758 122.0140918 67.71118164 122.61108398 C66.47761381 123.20711036 65.24388969 123.80281335 64.01000977 124.39819336 C62.22156278 125.27530487 60.4331166 126.15241827 58.64501953 127.03024292 C56.80387104 127.93260303 54.9607457 128.83083291 53.11743164 129.72875977 C49.24098543 131.6210077 45.37940171 133.54222465 41.52172852 135.47241211 C40.8608876 135.8028804 40.20004669 136.13334869 39.5191803 136.47383118 C35.98728929 138.24270964 32.46071068 140.02156826 28.93945312 141.81152344 C25.2051858 143.70905606 21.46125233 145.58630146 17.71118164 147.45239258 C16.18772736 148.21510556 14.66790519 148.98511221 13.15161133 149.76196289 C10.90769747 150.90975593 8.65213466 152.03107895 6.39282227 153.14819336 C5.72904572 153.49495117 5.06526917 153.84170898 4.38137817 154.19897461 C-1.74932621 157.17323808 -7.68867005 157.91729785 -14.23666382 155.73135376 C-16.98211841 154.52933591 -19.62894239 153.20867456 -22.28686523 151.82397461 C-23.77062653 151.08247917 -23.77062653 151.08247917 -25.28436279 150.32600403 C-27.37084055 149.28322699 -29.45358521 148.23295019 -31.53271484 147.17559814 C-35.59716921 145.12073106 -39.69392491 143.13646283 -43.79406738 141.15402222 C-47.83155766 139.20091706 -51.86003882 137.22958421 -55.88891602 135.25878906 C-58.96695216 133.75389995 -62.04681799 132.25279763 -65.12670898 130.75170898 C-67.12812334 129.77342301 -69.12942948 128.79491562 -71.13061523 127.81616211 C-72.02975647 127.3785405 -72.92889771 126.94091888 -73.85528564 126.49003601 C-93.38984956 116.91302873 -93.38984956 116.91302873 -95.67749023 113.58569336 C-96.03825378 110.49153137 -96.03825378 110.49153137 -96.01806641 106.63574219 C-96.01872353 105.58169945 -96.01872353 105.58169945 -96.01939392 104.50636292 C-96.01730471 102.184867 -95.99396842 99.86409427 -95.97045898 97.54272461 C-95.96486348 95.93275853 -95.96059316 94.32278734 -95.95759583 92.71281433 C-95.94614342 88.47614429 -95.91667302 84.23978296 -95.88348389 80.00323486 C-95.85279142 75.67985205 -95.83909226 71.35641935 -95.82397461 67.03295898 C-95.79180353 58.55039546 -95.74060261 50.06808282 -95.67749023 41.58569336 C-92.01121144 39.66958568 -88.34439677 37.75450565 -84.67749023 35.83959961 C-83.6475293 35.30129517 -82.61756836 34.76299072 -81.55639648 34.20837402 C-68.58731271 27.43729386 -55.48842006 21.01029794 -42.27124023 14.73974609 C-35.47346013 11.49529961 -28.78145152 8.09547033 -22.16796875 4.49023438 C-8.13310254 -3.12786716 -8.13310254 -3.12786716 0 0 Z M-14.14501953 12.42211914 C-14.77342239 12.73580948 -15.40182526 13.04949982 -16.04927063 13.37269592 C-18.12366419 14.41232881 -20.18742719 15.47145651 -22.25170898 16.53100586 C-23.69972537 17.26155025 -25.14836993 17.99085073 -26.59761047 18.71896362 C-30.41573667 20.64138716 -34.22517236 22.58044657 -38.03302002 24.52313232 C-41.87759751 26.48099199 -45.72995662 28.42340341 -49.58178711 30.36694336 C-56.39522271 33.80712553 -63.20159008 37.26094207 -70.00297546 40.72488403 C-74.55256767 43.02884092 -79.11617406 45.30503527 -83.67749023 47.58569336 C-83.67749023 68.04569336 -83.67749023 88.50569336 -83.67749023 109.58569336 C-71.18308608 116.2596852 -71.18308608 116.2596852 -58.48999023 122.46069336 C-51.06099956 125.94222383 -43.72898815 129.56551779 -36.43920898 133.32788086 C-33.99659177 134.58012117 -31.55341747 135.83126972 -29.11019897 137.08233643 C-27.49619663 137.91388728 -25.88548119 138.75185095 -24.27822876 139.59637451 C-22.00267369 140.79143001 -19.71660032 141.96373864 -17.42749023 143.13256836 C-16.7491362 143.49655731 -16.07078217 143.86054626 -15.37187195 144.23556519 C-10.69282746 146.58909349 -7.72408345 146.91871491 -2.67749023 145.58569336 C0.55949464 144.29967107 0.55949464 144.29967107 3.76000977 142.59350586 C4.65039192 142.14092407 4.65039192 142.14092407 5.5587616 141.67919922 C6.82708148 141.03327448 8.0931265 140.38286617 9.35702515 139.72833252 C12.02948572 138.34465314 14.71312074 136.98335483 17.39653015 135.62106323 C18.75669331 134.93048363 20.11632291 134.23885216 21.47541809 133.5461731 C27.44318353 130.50843835 33.46146309 127.58426234 39.51000977 124.71069336 C40.42548584 124.2745874 41.34096191 123.83848145 42.28417969 123.38916016 C46.81296515 121.23683788 51.35018981 119.10315137 55.89282227 116.98022461 C56.77687744 116.56562988 57.66093262 116.15103516 58.57177734 115.72387695 C60.23376179 114.94536095 61.89756149 114.17070388 63.56347656 113.40063477 C67.75666073 111.46411292 67.75666073 111.46411292 71.32250977 108.58569336 C71.61592096 105.873983 71.61592096 105.873983 71.54956055 102.66723633 C71.54940948 101.42610077 71.54925842 100.18496521 71.54910278 98.90621948 C71.53888877 97.54677166 71.52845676 96.18732546 71.51782227 94.82788086 C71.51409261 93.44068607 71.51124541 92.05348865 71.50924683 90.66629028 C71.5016066 87.01329285 71.48195492 83.36045419 71.45983887 79.70751953 C71.43938873 75.98073474 71.4302469 72.25392432 71.42016602 68.52709961 C71.39870927 61.21322511 71.36456879 53.89948147 71.32250977 46.58569336 C70.4664917 46.1702124 69.61047363 45.75473145 68.72851562 45.32666016 C66.10363649 44.05258126 63.47891647 42.77817504 60.85424805 41.50366211 C57.7606033 40.00147043 54.66645583 38.50032026 51.57202148 36.99975586 C43.77242919 33.21576307 35.97804946 29.42186424 28.19966125 25.59443665 C24.6467392 23.84634112 21.09183476 22.10229626 17.53689575 20.35830688 C15.81473443 19.51191094 14.09359658 18.66342926 12.37350464 17.81283569 C9.95540115 16.61729004 7.53388776 15.42892629 5.11157227 14.24194336 C4.39531174 13.88542191 3.67905121 13.52890045 2.94108582 13.16157532 C-4.00254419 9.77595764 -7.11142295 8.85699585 -14.14501953 12.42211914 Z " fill="#F5F5F5" transform="translate(960.677490234375,443.414306640625)"/>
<path d="M0 0 C0.69814316 0.34219574 1.39628632 0.68439148 2.11558533 1.03695679 C4.39009849 2.15532363 6.65587965 3.29026908 8.921875 4.42578125 C10.49861617 5.20533483 12.07585081 5.98389108 13.65356445 6.76147461 C17.59913646 8.70976407 21.53761123 10.67190347 25.47344971 12.63977051 C28.12383714 13.96411802 30.77697397 15.28288263 33.43031311 16.6013031 C39.28393591 19.51061832 45.12713017 22.44025058 50.96582031 25.37939453 C53.47641687 26.64012896 55.99084157 27.8926752 58.5078125 29.140625 C59.23331299 29.5008374 59.95881348 29.8610498 60.70629883 30.23217773 C62.53934688 31.14153021 64.37314473 32.04937088 66.20703125 32.95703125 C68.96659556 34.37570242 71.67932307 35.83887241 74.38842773 37.34960938 C75.19247543 37.79759888 75.99652313 38.24558838 76.82493591 38.70715332 C77.43442581 39.04742554 78.04391571 39.38769775 78.671875 39.73828125 C78.76454919 49.05676541 78.8356266 58.37509097 78.87912369 67.69393539 C78.90000003 72.02105739 78.92831812 76.34786413 78.97363281 80.67480469 C79.01708952 84.85045724 79.04101175 89.02580655 79.05138397 93.20166779 C79.05877572 94.79491195 79.07321021 96.38813949 79.09479523 97.98125458 C79.12382827 100.21280294 79.12783126 102.44309789 79.12597656 104.67480469 C79.13485901 105.94499451 79.14374146 107.21518433 79.15289307 108.52386475 C78.58468491 112.32093141 77.65937077 113.41923265 74.671875 115.73828125 C72.19604492 117.21118164 72.19604492 117.21118164 69.40234375 118.5859375 C68.35997559 119.10325439 67.31760742 119.62057129 66.24365234 120.15356445 C65.12684082 120.697146 64.0100293 121.24072754 62.859375 121.80078125 C61.7038916 122.37078857 60.5484082 122.9407959 59.35791016 123.52807617 C50.82850229 127.72283826 42.26007967 131.83670553 33.67456055 135.9152832 C28.1413816 138.5451763 22.64189568 141.22963502 17.171875 143.98828125 C15.90905275 144.61888741 14.6460362 145.24910465 13.3828125 145.87890625 C11.48339013 146.82610364 9.58945169 147.78090412 7.70410156 148.75585938 C5.74369663 149.76823899 3.7718937 150.75478209 1.796875 151.73828125 C0.66507813 152.31578125 -0.46671875 152.89328125 -1.6328125 153.48828125 C-7.66070079 155.52731323 -13.67642168 155.75608584 -19.58666992 153.16870117 C-21.00440749 152.45575676 -22.41154696 151.72143176 -23.80859375 150.96875 C-24.57586792 150.57669373 -25.34314209 150.18463745 -26.13366699 149.78070068 C-28.60413001 148.51378857 -31.05940597 147.22005643 -33.515625 145.92578125 C-35.22581473 145.04341273 -36.93716901 144.1632978 -38.6496582 143.28540039 C-41.19947417 141.97786891 -43.74848805 140.66902133 -46.29362488 139.35240173 C-52.80504108 135.9850517 -59.37707553 132.78597472 -66.015625 129.67578125 C-73.09216312 126.32390631 -80.11914234 122.89112656 -87.078125 119.30078125 C-87.87178467 118.89915771 -88.66544434 118.49753418 -89.4831543 118.08374023 C-90.21058838 117.70290283 -90.93802246 117.32206543 -91.6875 116.9296875 C-92.32139648 116.60170166 -92.95529297 116.27371582 -93.60839844 115.93579102 C-95.8233377 114.39344617 -96.92416029 113.06475663 -98.328125 110.73828125 C-98.74272156 107.59547424 -98.74272156 107.59547424 -98.7956543 103.84594727 C-98.80894272 103.16089111 -98.82223114 102.47583496 -98.83592224 101.77001953 C-98.87454196 99.51062381 -98.89019952 97.2518716 -98.90234375 94.9921875 C-98.91706742 93.4180436 -98.93194701 91.84390115 -98.94697571 90.26976013 C-98.97394806 86.97203473 -98.98751119 83.67453447 -98.99389648 80.37670898 C-99.00477561 76.15459075 -99.06651416 71.93485724 -99.1406126 67.7134409 C-99.18902068 64.46282418 -99.20142425 61.21278223 -99.20395851 57.96183586 C-99.21118333 56.40563176 -99.23163468 54.84942984 -99.26566124 53.29358101 C-99.50896145 41.2505296 -99.50896145 41.2505296 -96.83328247 37.82389832 C-94.72014337 36.45051536 -92.69198311 35.6060851 -90.328125 34.73828125 C-88.75624343 33.93254306 -87.19196471 33.11183675 -85.63476562 32.27807617 C-83.9200169 31.4208581 -82.20311592 30.56793529 -80.484375 29.71875 C-79.55701538 29.25648514 -78.62965576 28.79422028 -77.67419434 28.31794739 C-74.72737853 26.85008942 -71.77783481 25.38781343 -68.828125 23.92578125 C-66.88002163 22.95675546 -64.93210342 21.98735733 -62.984375 21.01757812 C-59.19352811 19.13066511 -55.40165156 17.24584767 -51.60888672 15.36279297 C-46.89914018 13.02361637 -42.19451484 10.67436047 -37.4921875 8.3203125 C-35.10430036 7.12603448 -32.71621564 5.93215236 -30.328125 4.73828125 C-29.42739258 4.28735107 -28.52666016 3.8364209 -27.59863281 3.37182617 C-25.47291526 2.31406664 -23.34017913 1.27288682 -21.203125 0.23828125 C-20.51476562 -0.1071875 -19.82640625 -0.45265625 -19.1171875 -0.80859375 C-18.44171875 -1.1334375 -17.76625 -1.45828125 -17.0703125 -1.79296875 C-16.20188721 -2.21932617 -16.20188721 -2.21932617 -15.31591797 -2.65429688 C-9.51892786 -4.42571807 -5.16872536 -2.62038327 0 0 Z M-18.515625 11.25390625 C-19.96828609 11.9950506 -21.42142437 12.73526029 -22.875 13.47460938 C-23.61685547 13.85335205 -24.35871094 14.23209473 -25.12304688 14.62231445 C-28.48361668 16.32306341 -31.87242975 17.96321532 -35.265625 19.59765625 C-35.92045868 19.91387436 -36.57529236 20.23009247 -37.24996948 20.55589294 C-38.5902956 21.20302614 -39.93078141 21.84982869 -41.27142334 22.49630737 C-53.30044241 28.29805924 -65.29108244 34.16471159 -77.20703125 40.19628906 C-78.11066406 40.65229492 -79.01429688 41.10830078 -79.9453125 41.578125 C-80.72503418 41.97378662 -81.50475586 42.36944824 -82.30810547 42.77709961 C-84.328125 43.73828125 -84.328125 43.73828125 -87.328125 44.73828125 C-87.328125 65.52828125 -87.328125 86.31828125 -87.328125 107.73828125 C-79.408125 111.69828125 -71.488125 115.65828125 -63.328125 119.73828125 C-59.55375 121.65640625 -59.55375 121.65640625 -55.703125 123.61328125 C-46.44501071 128.25706498 -37.02669589 132.56966079 -27.62060547 136.90380859 C-26.98055069 137.19997574 -26.34049591 137.49614288 -25.68104553 137.80128479 C-23.92020901 138.61603246 -22.15802179 139.42785915 -20.39575195 140.23950195 C-17.328125 141.73828125 -17.328125 141.73828125 -14.79760742 143.49291992 C-11.45603379 145.17807732 -9.89830241 144.76822031 -6.328125 143.73828125 C-3.87111931 142.64508538 -1.53210229 141.51691329 0.83984375 140.265625 C2.26429926 139.5339959 3.68929031 138.80340878 5.11474609 138.07373047 C5.85899841 137.69045593 6.60325073 137.3071814 7.37005615 136.91229248 C11.25492675 134.93086735 15.17634464 133.02520074 19.09765625 131.1171875 C19.904841 130.72365082 20.71202576 130.33011414 21.54367065 129.9246521 C23.19483701 129.11982657 24.84621563 128.31543637 26.49780273 127.51147461 C28.97251717 126.30655474 31.44625436 125.09964556 33.91992188 123.89257812 C35.56244134 123.09232751 37.20501768 122.2921936 38.84765625 121.4921875 C39.55247635 121.1481337 40.25729645 120.8040799 40.98347473 120.44960022 C49.84592836 116.13982182 58.76429808 111.95765979 67.671875 107.73828125 C67.671875 86.94828125 67.671875 66.15828125 67.671875 44.73828125 C62.391875 42.42828125 57.111875 40.11828125 51.671875 37.73828125 C43.40745885 33.63966836 43.40745885 33.63966836 40.0078125 31.90625 C35.08621652 29.42250751 30.09648931 27.08681731 25.109375 24.73828125 C16.47864186 20.66322076 8.05668503 16.29273376 -0.328125 11.73828125 C-7.85940083 7.71705705 -10.88431373 7.28572441 -18.515625 11.25390625 Z " fill="#F7F7F7" transform="translate(582.328125,445.26171875)"/>
<path d="M0 0 C0.79644928 0.39128082 1.59289856 0.78256165 2.41348267 1.18569946 C5.01847395 2.46912929 7.61469891 3.76928009 10.2109375 5.0703125 C12.02396725 5.96900093 13.83745044 6.8667751 15.65136719 7.76367188 C19.40875361 9.6242769 23.16229608 11.49234491 26.91308594 13.36621094 C31.55906658 15.68630986 36.21350561 17.98870543 40.87203979 20.28347778 C44.36347052 22.00410471 47.85192614 23.73069409 51.33953857 25.45904541 C52.9947443 26.27873667 54.65070256 27.0969102 56.30743408 27.91351318 C58.61689115 29.0534484 60.92220909 30.20135265 63.2265625 31.3515625 C64.23947861 31.84881332 64.23947861 31.84881332 65.27285767 32.35610962 C69.11904873 34.28815694 72.52587402 36.15546135 75.5859375 39.1953125 C76.22758484 42.33811951 76.22758484 42.33811951 76.2487793 46.08764648 C76.25914719 46.77270264 76.26951508 47.45775879 76.28019714 48.16357422 C76.30725583 50.42346468 76.29760963 52.6814126 76.28515625 54.94140625 C76.29106597 56.51555421 76.29831304 58.08969766 76.30683899 59.66383362 C76.31871782 62.96175566 76.31201561 66.25900277 76.29272461 69.55688477 C76.26984952 73.77871179 76.29659961 77.99852461 76.33778667 82.22015285 C76.36339211 85.47082646 76.36077745 88.72101995 76.34989357 91.97175789 C76.3484087 93.52786143 76.35607609 95.0840021 76.37314415 96.64001274 C76.39316501 98.8191025 76.37469535 100.99465595 76.34643555 103.17358398 C76.34467819 104.41172348 76.34292084 105.64986298 76.34111023 106.92552185 C75.30723938 111.40203577 73.32166534 112.64663479 69.5859375 115.1953125 C67.02055359 116.70289612 67.02055359 116.70289612 64.4362793 117.95922852 C63.45632492 118.44065811 62.47637054 118.92208771 61.46672058 119.41810608 C60.41680435 119.92337326 59.36688812 120.42864044 58.28515625 120.94921875 C57.17654739 121.4907811 56.06793854 122.03234344 54.92573547 122.59031677 C51.37871942 124.3206431 47.82619592 126.03931273 44.2734375 127.7578125 C41.95861991 128.88531975 39.64416341 130.01356866 37.33007812 131.14257812 C32.72006458 133.39049174 28.10323275 135.62353617 23.48193359 137.84814453 C18.83950382 140.08751157 14.22802352 142.37868224 9.63134766 144.71044922 C7.95332817 145.54901711 7.95332817 145.54901711 6.2414093 146.40452576 C4.13478653 147.45794065 2.03548645 148.52618825 -0.05451965 149.61219788 C-6.29465373 152.70356088 -11.43511815 154.30981549 -18.4140625 153.1953125 C-21.93823242 151.99291992 -21.93823242 151.99291992 -25.14453125 150.30078125 C-25.73378387 149.99769043 -26.3230365 149.69459961 -26.93014526 149.38232422 C-28.83055199 148.40035133 -30.71534918 147.39173397 -32.6015625 146.3828125 C-33.93359319 145.69011068 -35.26686439 144.99978949 -36.60131836 144.31176758 C-38.62051248 143.27030103 -40.6388532 142.22748637 -42.65339661 141.17704773 C-48.53200646 138.1121191 -54.483542 135.21747581 -60.4765625 132.3828125 C-61.39147461 131.94718994 -62.30638672 131.51156738 -63.24902344 131.06274414 C-67.89868191 128.85120987 -72.55689279 126.65834106 -77.21875 124.47265625 C-78.16484131 124.02704346 -79.11093262 123.58143066 -80.08569336 123.12231445 C-81.86041868 122.28688236 -83.63711441 121.45561601 -85.41625977 120.62963867 C-99.51810389 113.98722972 -99.51810389 113.98722972 -101.4140625 110.1953125 C-101.50614708 107.91805076 -101.53155848 105.63800603 -101.52758789 103.35888672 C-101.52780693 102.30506302 -101.52780693 102.30506302 -101.5280304 101.22994995 C-101.52733264 98.90326877 -101.51954669 96.57666723 -101.51171875 94.25 C-101.50985408 92.63860111 -101.50843041 91.02720166 -101.50743103 89.415802 C-101.5036097 85.17102498 -101.49378268 80.92628208 -101.48272705 76.68151855 C-101.47250468 72.35148582 -101.46793164 68.02144757 -101.46289062 63.69140625 C-101.45216008 55.19269266 -101.43508825 46.69400682 -101.4140625 38.1953125 C-99.17586619 36.90726923 -96.93663623 35.62108387 -94.69677734 34.3359375 C-94.06694443 33.97322754 -93.43711151 33.61051758 -92.78819275 33.23681641 C-88.29829785 30.66331102 -83.76316355 28.31233704 -79.0390625 26.1953125 C-68.27834638 21.31229846 -57.75344896 15.9422917 -47.27017212 10.4937439 C-43.98930912 8.79149762 -40.70073279 7.10447782 -37.41113281 5.41918945 C-35.72852616 4.5523871 -34.04953752 3.67852972 -32.37402344 2.7980957 C-29.90708674 1.50392986 -27.42806789 0.2361508 -24.9453125 -1.02734375 C-24.20559204 -1.42301041 -23.46587158 -1.81867706 -22.70373535 -2.22633362 C-14.2074555 -6.47900209 -8.08774614 -4.09379743 0 0 Z M-19.26489258 8.51513672 C-20.2780806 9.0234201 -21.29126862 9.53170349 -22.3351593 10.0553894 C-23.44014267 10.6146109 -24.54512604 11.1738324 -25.68359375 11.75 C-27.43648133 12.63042204 -29.18937018 13.51084156 -30.94232464 14.39113045 C-33.41599194 15.634547 -35.88784341 16.88155047 -38.35968018 18.12860107 C-43.77763269 20.86157879 -49.19867376 23.5883984 -54.62109375 26.3125 C-56.37403244 27.19370514 -56.37403244 27.19370514 -58.16238403 28.0927124 C-66.48741935 32.26443249 -74.86071791 36.32220842 -83.29389954 40.27072144 C-84.09240829 40.64560699 -84.89091705 41.02049255 -85.71362305 41.40673828 C-86.75633614 41.89244797 -86.75633614 41.89244797 -87.82011414 42.38796997 C-89.41376063 43.09124411 -89.41376063 43.09124411 -90.4140625 44.1953125 C-90.50802307 46.12837748 -90.53149767 48.06490088 -90.52758789 50.00024414 C-90.52751236 51.24145523 -90.52743683 52.48266632 -90.52735901 53.76148987 C-90.52225161 55.1261499 -90.5170356 56.49080952 -90.51171875 57.85546875 C-90.5098545 59.24409433 -90.50843063 60.63272057 -90.50743103 62.02134705 C-90.50360637 65.68252365 -90.49377653 69.3436608 -90.48272705 73.00482178 C-90.47251182 76.73823513 -90.46793317 80.47165484 -90.46289062 84.20507812 C-90.45215421 91.53517427 -90.43507841 98.86523786 -90.4140625 106.1953125 C-89.45121338 106.67637451 -88.48836426 107.15743652 -87.49633789 107.65307617 C-80.40189185 111.19853087 -73.30970463 114.74837319 -66.22265625 118.30859375 C-53.23347483 124.83100701 -40.24105358 131.35034651 -27.1640625 137.6953125 C-25.79205688 138.37074097 -25.79205688 138.37074097 -24.39233398 139.05981445 C-23.54872314 139.46546631 -22.7051123 139.87111816 -21.8359375 140.2890625 C-21.12018555 140.63646484 -20.40443359 140.98386719 -19.66699219 141.34179688 C-15.75835695 142.82257156 -12.75312207 143.64380251 -8.71118164 142.29003906 C-7.34401001 141.57025879 -7.34401001 141.57025879 -5.94921875 140.8359375 C-4.39630127 140.03627563 -4.39630127 140.03627563 -2.81201172 139.22045898 C-1.71131348 138.63466064 -0.61061523 138.0488623 0.5234375 137.4453125 C2.27829718 136.53843459 4.03317484 135.63158717 5.78961182 134.72776794 C6.98340197 134.11289803 8.17622875 133.49615423 9.36810303 132.87757874 C14.92224266 129.9987926 20.55302124 127.30006651 26.2109375 124.6328125 C35.52868817 120.21866806 44.75955796 115.6445977 53.95947266 110.98999023 C54.9138623 110.50860596 55.86825195 110.02722168 56.8515625 109.53125 C57.69493164 109.10376465 58.53830078 108.6762793 59.40722656 108.23583984 C61.5859375 107.1953125 61.5859375 107.1953125 64.5859375 106.1953125 C64.5859375 85.7353125 64.5859375 65.2753125 64.5859375 44.1953125 C59.3059375 41.5553125 54.0259375 38.9153125 48.5859375 36.1953125 C46.17152344 34.98230469 43.75710938 33.76929688 41.26953125 32.51953125 C26.88752759 25.29724294 12.46195185 18.19313868 -2.08886719 11.31494141 C-4.38539637 10.20911582 -6.65367652 9.05714848 -8.921875 7.89453125 C-13.69941376 5.56988991 -14.70914571 6.21820928 -19.26489258 8.51513672 Z " fill="#F6F6F7" transform="translate(776.4140625,446.8046875)"/>
<path d="M0 0 C2.61523163 1.20756993 5.19006533 2.47793189 7.76248169 3.7742157 C8.72368927 4.24858063 9.68489685 4.72294556 10.67523193 5.21168518 C13.78696557 6.74962168 16.89184687 8.30088088 19.99685669 9.8523407 C22.13061401 10.90986846 24.26489326 11.96634377 26.39968872 13.02177429 C29.5767898 14.5927122 32.7535283 16.16433368 35.92840576 17.73976135 C45.15701476 22.3181663 54.43276894 26.79077072 63.74002075 31.20683289 C79.26124226 38.61672626 79.26124226 38.61672626 81.74685669 41.1023407 C81.88349827 43.37536481 81.94888418 45.65268632 81.98733521 47.92948914 C82.00033157 48.64336792 82.01332794 49.3572467 82.02671814 50.09275818 C82.15354323 57.56762459 82.21020171 65.04363217 82.26174927 72.51933289 C82.28850113 76.06814281 82.33723175 79.61561073 82.40530396 83.16386414 C82.48722529 87.44456337 82.52992816 91.72398395 82.54481316 96.0054245 C82.55706855 97.63703233 82.58312005 99.2685974 82.62326241 100.89975739 C82.92096302 113.63545055 82.92096302 113.63545055 80.12477112 117.12892151 C78.03466948 118.47178071 76.09364972 119.30381012 73.74685669 120.1023407 C72.71939331 120.65615417 71.69192993 121.20996765 70.6333313 121.78056335 C69.64856812 122.2708905 68.66380493 122.76121765 67.64920044 123.2664032 C66.53021362 123.82529236 65.41122681 124.38418152 64.2583313 124.96000671 C62.48921387 125.83483704 62.48921387 125.83483704 60.68435669 126.7273407 C59.43242055 127.34952559 58.18054979 127.97184205 56.92874146 128.59428406 C47.54773217 133.24967286 38.11968119 137.80331684 28.65310669 142.2820282 C24.88124504 144.07094612 21.12867367 145.89433327 17.38905334 147.74975586 C14.92618892 148.97116165 12.45915759 150.18402936 9.99200439 151.39674377 C8.22515544 152.26968343 6.46431362 153.15474838 4.7036438 154.04008484 C3.62348999 154.56980896 2.54333618 155.09953308 1.43045044 155.64530945 C0.47710815 156.11992615 -0.47623413 156.59454285 -1.45846558 157.08354187 C-6.24160529 158.82723385 -9.15817768 158.54923079 -13.87399292 156.6245575 C-15.22401898 155.94574051 -16.56756637 155.25393479 -17.90548706 154.55155945 C-18.63375702 154.18183517 -19.36202698 153.8121109 -20.11236572 153.43118286 C-22.47740055 152.22805027 -24.83379256 151.00891479 -27.19064331 149.7898407 C-29.64663506 148.53611457 -32.10480179 147.28673033 -34.56318665 146.03770447 C-36.19273835 145.20956547 -37.82161707 144.38010089 -39.44981384 143.54930115 C-45.76964512 140.32871263 -52.14494259 137.24195899 -58.56564331 134.2273407 C-66.48162982 130.48702622 -74.2962816 126.57617033 -82.06564331 122.5398407 C-83.05797974 122.02631042 -84.05031616 121.51278015 -85.07272339 120.98368835 C-85.98433228 120.50592957 -86.89594116 120.02817078 -87.83517456 119.53593445 C-88.64188599 119.11368591 -89.44859741 118.69143738 -90.27975464 118.25639343 C-92.25314331 117.1023407 -92.25314331 117.1023407 -94.25314331 115.1023407 C-94.52729797 112.11738586 -94.52729797 112.11738586 -94.55953979 108.2375946 C-94.56786331 107.53171707 -94.57618683 106.82583954 -94.58476257 106.09857178 C-94.60891238 103.75862659 -94.61764081 101.4189599 -94.62423706 99.0789032 C-94.63320002 97.45466527 -94.6423218 95.8304282 -94.65159607 94.20619202 C-94.66810243 90.79818208 -94.67578908 87.39027057 -94.67868042 83.98222351 C-94.68406434 79.61485234 -94.72173654 75.2484061 -94.76742458 70.88129616 C-94.79716729 67.52524947 -94.80440336 64.16942617 -94.80540657 60.81325912 C-94.80961491 59.20327394 -94.82207392 57.59328844 -94.84292412 55.98343277 C-94.86978172 53.73022261 -94.86503223 51.47916432 -94.85250854 49.22587585 C-94.85757919 47.94395355 -94.86264984 46.66203125 -94.86787415 45.34126282 C-94.25314331 42.1023407 -94.25314331 42.1023407 -91.97625732 39.79804993 C-89.70240706 38.38210155 -87.48275561 37.03522417 -85.08395386 35.84745789 C-84.295103 35.45314575 -83.50625214 35.05883362 -82.6934967 34.65257263 C-81.85079727 34.23896484 -81.00809784 33.82535706 -80.13986206 33.3992157 C-79.25264969 32.95773193 -78.36543732 32.51624817 -77.45133972 32.06138611 C-74.61722087 30.6526852 -71.77906225 29.25235372 -68.94064331 27.8523407 C-67.07513118 26.92711927 -65.20989414 26.00134297 -63.34494019 25.07499695 C-59.69691424 23.26382914 -56.04743801 21.45563865 -52.396698 19.64994812 C-45.33756445 16.15660857 -38.29505102 12.63023518 -31.25314331 9.1023407 C-29.63604558 8.29356743 -28.01887537 7.48493905 -26.40158081 6.67655945 C-25.75833862 6.35493835 -25.11509644 6.03331726 -24.45236206 5.70195007 C-21.38595581 4.16874695 -18.31954956 2.63554382 -15.25314331 1.1023407 C-14.25540894 0.51066101 -13.25767456 -0.08101868 -12.22970581 -0.69062805 C-7.80403557 -2.4852896 -4.31666297 -1.71977195 0 0 Z M-14.03781128 12.15409851 C-14.71150757 12.49050858 -15.38520386 12.82691864 -16.07931519 13.17352295 C-18.30719674 14.28955501 -20.52609018 15.42236156 -22.74533081 16.5554657 C-24.29413043 17.33546393 -25.84346526 18.11440028 -27.39331055 18.89231873 C-31.47673678 20.94549153 -35.55275946 23.01296061 -39.62741089 25.08348083 C-43.7600557 27.18036537 -47.89942473 29.26388185 -52.03829956 31.34843445 C-58.7330579 34.72217733 -65.42365779 38.10399667 -72.10876465 41.49682617 C-75.81718631 43.37822031 -79.53205701 45.2461229 -83.25314331 47.1023407 C-83.43870033 55.09954335 -83.58074233 63.0958437 -83.66764069 71.09466839 C-83.70935407 74.80918206 -83.76589977 78.52222092 -83.85665894 82.23588562 C-83.9437409 85.82162704 -83.99144644 89.40595272 -84.01216125 92.99267006 C-84.02691703 94.35918792 -84.0557359 95.72563016 -84.09898376 97.0915432 C-84.5863352 104.43585662 -84.5863352 104.43585662 -81.79203796 110.89064026 C-79.6761757 112.26611766 -77.59839432 113.17295436 -75.25314331 114.1023407 C-73.57662025 114.96766081 -71.90587824 115.84424705 -70.24020386 116.73027039 C-68.37553054 117.66579753 -66.50863454 118.59690397 -64.63986206 119.5242157 C-63.63083328 120.02850098 -62.6218045 120.53278625 -61.5821991 121.05235291 C-59.45091916 122.1164885 -57.31867232 123.17868953 -55.18551636 124.23905945 C-51.98638476 125.82959903 -48.79041917 127.42635276 -45.59494019 129.0242157 C-40.46449126 131.58627964 -35.32441544 134.12814881 -30.17837524 136.65873718 C-27.32997071 138.06442633 -24.49004865 139.48627513 -21.65011597 140.90898132 C-19.94143945 141.75043245 -18.2323182 142.5909813 -16.52267456 143.4304657 C-15.7534819 143.82095093 -14.98428925 144.21143616 -14.19178772 144.61375427 C-10.06777867 146.62235482 -10.06777867 146.62235482 -5.56661987 146.98100281 C-2.96650553 145.99347521 -0.47125365 144.93118992 2.03201294 143.71562195 C3.09967896 143.19959412 4.16734497 142.68356628 5.2673645 142.15190125 C6.43622192 141.57867126 7.60507935 141.00544128 8.80935669 140.4148407 C10.04851738 139.81153245 11.28777828 139.20843 12.52713013 138.60551453 C24.88766875 132.57628464 37.19158723 126.43082094 49.49685669 120.2898407 C50.99262741 119.54403244 50.99262741 119.54403244 52.51861572 118.78315735 C55.36151965 117.36458966 58.20290251 115.94302666 61.04373169 114.52030945 C61.90907028 114.08862457 62.77440887 113.6569397 63.66596985 113.21217346 C64.45417618 112.81652191 65.24238251 112.42087036 66.05447388 112.01322937 C66.7464386 111.66684921 67.43840332 111.32046906 68.15133667 110.96359253 C69.74059089 110.20405951 69.74059089 110.20405951 70.74685669 109.1023407 C70.84086339 107.13864917 70.8642905 105.17154871 70.86038208 103.20561218 C70.86030655 101.94438034 70.86023102 100.6831485 70.8601532 99.38369751 C70.85504579 97.99694276 70.84982978 96.61018841 70.84451294 95.22343445 C70.8426487 93.81238861 70.84122483 92.40134213 70.84022522 90.99029541 C70.83640048 87.26993535 70.82657059 83.5496141 70.81552124 79.82926941 C70.80530617 76.03553289 70.80072739 72.24179012 70.79568481 68.44804382 C70.78494827 60.99945839 70.76787239 53.55090497 70.74685669 46.1023407 C60.13966528 40.77099593 49.49718307 35.52002327 38.80935669 30.3523407 C38.10694855 30.01250153 37.40454041 29.67266235 36.68084717 29.32252502 C33.08583771 27.583217 29.49031476 25.84497683 25.89431763 24.10771179 C22.59542915 22.51352724 19.29885649 20.91463317 16.00328064 19.31361389 C13.14843431 17.92766901 10.2912243 16.54661311 7.43435669 15.1648407 C6.40383179 14.66307312 5.37330688 14.16130554 4.31155396 13.64433289 C3.36594604 13.18832703 2.42033813 12.73232117 1.44607544 12.26249695 C0.62969604 11.86683533 -0.18668335 11.47117371 -1.02780151 11.06352234 C-1.76216431 10.7463324 -2.4965271 10.42914246 -3.25314331 10.1023407 C-4.10208916 9.73069038 -4.10208916 9.73069038 -4.96818542 9.35153198 C-8.46109052 8.97060527 -11.01729815 10.59219069 -14.03781128 12.15409851 Z " fill="#F7F6F7" transform="translate(866.2531433105469,311.8976593017578)"/>
<path d="M0 0 C3.1529338 1.40173376 6.222297 2.9176717 9.29711914 4.4831543 C10.41143311 5.03487305 11.52574707 5.5865918 12.67382812 6.1550293 C15.88887454 7.75032224 19.09361147 9.36484962 22.29711914 10.9831543 C23.74551457 11.70356199 25.19460485 12.4225766 26.64477539 13.1394043 C29.79257155 14.698915 32.93146718 16.27539057 36.06762695 17.8581543 C40.78680203 20.23944632 45.50974612 22.61319001 50.23461914 24.9831543 C51.25773193 25.49668457 52.28084473 26.01021484 53.33496094 26.53930664 C60.26738914 30.00524417 67.2396025 33.3683168 74.296875 36.57299805 C77.03285844 37.83006217 79.14894605 38.83498121 81.29711914 40.9831543 C81.53762817 44.0329895 81.53762817 44.0329895 81.52416992 48.00317383 C81.52446198 48.7252301 81.52475403 49.44728638 81.52505493 50.19122314 C81.52365922 52.58292572 81.50808697 54.97431851 81.49243164 57.3659668 C81.48870236 59.02220489 81.48585499 60.67844519 81.4838562 62.33468628 C81.47621303 66.6978767 81.45655874 71.06093437 81.43444824 75.42407227 C81.41400449 79.87473759 81.40485764 84.32542432 81.39477539 88.77612305 C81.37331343 97.51186111 81.33916932 106.2474912 81.29711914 114.9831543 C63.05830228 124.67892615 44.60515138 133.92288256 26.10249329 143.10276794 C21.49449521 145.38934683 16.89265742 147.68661107 12.30508423 150.01390076 C9.70482854 151.32934337 7.09411377 152.62366015 4.48461914 153.9206543 C3.18282715 154.59245728 3.18282715 154.59245728 1.85473633 155.27783203 C-3.10602985 157.70702618 -6.19021717 158.5845985 -11.70288086 156.9831543 C-14.83237273 155.75358658 -17.8203594 154.29646895 -20.82788086 152.7956543 C-22.24218384 152.10379028 -22.24218384 152.10379028 -23.68505859 151.39794922 C-25.9547934 150.28682381 -28.22238492 149.17185926 -30.48852539 148.0534668 C-34.58197251 146.03747932 -38.68816022 144.04819484 -42.79528809 142.06025696 C-46.78121542 140.13060178 -50.76476703 138.19607268 -54.74798584 136.26083374 C-56.73946131 135.29381786 -58.73151546 134.3279927 -60.72418213 133.36343384 C-90.98325632 118.70277883 -90.98325632 118.70277883 -94.70288086 114.9831543 C-94.82365452 112.73507107 -94.87317858 110.48314547 -94.89575195 108.23193359 C-94.90392944 107.52620209 -94.91210693 106.82047058 -94.92053223 106.09335327 C-94.94542982 103.74803528 -94.96191384 101.40277801 -94.97631836 99.05737305 C-94.98164204 98.25790567 -94.98696571 97.4584383 -94.99245071 96.63474464 C-95.0192022 92.40266502 -95.03857 88.1706151 -95.05297852 83.93847656 C-95.06962505 79.56327888 -95.11439621 75.18883469 -95.16534996 70.81392193 C-95.19898436 67.45360943 -95.21055175 64.09347648 -95.2162056 60.73301125 C-95.22292951 59.12021951 -95.23818129 57.50744006 -95.26209641 55.89481163 C-95.29367007 53.63676778 -95.29379779 51.38076465 -95.28637695 49.12255859 C-95.29446381 47.83762009 -95.30255066 46.55268158 -95.31088257 45.22880554 C-94.70288086 41.9831543 -94.70288086 41.9831543 -92.3626709 39.64620972 C-89.31716997 37.74198542 -86.2419304 36.07573984 -83.02319336 34.47924805 C-82.38251923 34.15966629 -81.74184509 33.84008453 -81.08175659 33.51081848 C-79.00009865 32.47465852 -76.91416038 31.44747266 -74.82788086 30.4206543 C-73.37458322 29.69997368 -71.92145972 28.97894181 -70.46850586 28.25756836 C-61.34574085 23.737324 -52.18998153 19.28748057 -42.97851562 14.95043945 C-38.01436065 12.60507807 -33.10891466 10.17743936 -28.23803711 7.64331055 C-27.1571582 7.08546875 -26.0762793 6.52762695 -24.96264648 5.95288086 C-22.89034948 4.87875501 -20.82472288 3.79162095 -18.76733398 2.68920898 C-12.1711921 -0.7176643 -7.16733401 -2.69640919 0 0 Z M-11.15478516 11.10351562 C-12.5447596 11.80103691 -12.5447596 11.80103691 -13.96281433 12.51264954 C-14.97402847 13.02498642 -15.98524261 13.5373233 -17.02709961 14.06518555 C-18.07952347 14.59399826 -19.13194733 15.12281097 -20.21626282 15.66764832 C-23.60954416 17.37322126 -27.00014213 19.0840424 -30.39038086 20.7956543 C-34.78867863 23.01337298 -39.18839076 25.22824969 -43.58959961 27.44018555 C-44.67481903 27.98595245 -45.76003845 28.53171936 -46.87814331 29.09402466 C-55.39903241 33.36448819 -63.97731664 37.50578673 -72.59977722 41.5670929 C-73.49207535 41.98887314 -74.38437347 42.41065338 -75.30371094 42.84521484 C-76.08410233 43.21164597 -76.86449371 43.57807709 -77.66853333 43.95561218 C-79.92320892 45.04337579 -79.92320892 45.04337579 -82.70288086 46.9831543 C-83.23648437 49.64898318 -83.23648437 49.64898318 -83.26220703 52.82226562 C-83.30782272 54.04726273 -83.35343842 55.27225983 -83.4004364 56.53437805 C-83.43376468 57.87794361 -83.46553061 59.22154871 -83.49584961 60.56518555 C-83.53301328 61.94040788 -83.57031272 63.31562655 -83.60774231 64.69084167 C-83.68176342 67.5766343 -83.74235901 70.46239217 -83.79589844 73.34863281 C-83.86715064 77.04248104 -83.98939444 80.7327348 -84.12421703 84.42473316 C-84.21923146 87.26658933 -84.27782877 90.10836853 -84.32653236 92.9513607 C-84.35593714 94.31242796 -84.39870991 95.67327586 -84.45522118 97.03348732 C-85.02167917 104.41515583 -85.02167917 104.41515583 -82.12052917 110.83099365 C-80.03258413 112.17319568 -78.01555048 113.09025115 -75.70288086 113.9831543 C-74.55424561 114.59755371 -73.40561035 115.21195312 -72.22216797 115.8449707 C-71.06982666 116.41908691 -69.91748535 116.99320312 -68.73022461 117.5847168 C-67.77476494 118.06237488 -67.77476494 118.06237488 -66.80000305 118.54968262 C-64.74887169 119.57340511 -62.69477978 120.59100724 -60.64038086 121.6081543 C-59.20964494 122.32008672 -57.77898159 123.03216502 -56.34838867 123.74438477 C-46.98782659 128.39592324 -37.59306049 132.97339461 -28.140625 137.43579102 C-24.32674832 139.23701162 -20.53037186 141.04435175 -16.80444336 143.0222168 C-15.73967773 143.58682617 -14.67491211 144.15143555 -13.57788086 144.7331543 C-12.72967773 145.20237305 -11.88147461 145.6715918 -11.00756836 146.1550293 C-7.34533852 147.47094917 -4.6010609 146.37592811 -1.11352539 144.85083008 C-0.19684082 144.3814502 0.71984375 143.91207031 1.66430664 143.4284668 C2.70264648 142.90188477 3.74098633 142.37530273 4.81079102 141.83276367 C6.47464844 140.97908203 6.47464844 140.97908203 8.17211914 140.1081543 C10.5332675 138.91115588 12.89503882 137.71550822 15.25805664 136.5222168 C15.85354309 136.22095886 16.44902954 135.91970093 17.06256104 135.60931396 C22.60126133 132.81397073 28.19123817 130.14104751 33.79711914 127.4831543 C46.3713874 121.46937383 58.83027422 115.21657676 71.29711914 108.9831543 C71.29711914 88.1931543 71.29711914 67.4031543 71.29711914 45.9831543 C66.01711914 43.6731543 60.73711914 41.3631543 55.29711914 38.9831543 C52.66795442 37.72676505 50.0489492 36.44816036 47.45336914 35.1237793 C46.12142361 34.44848 44.78938853 33.77335729 43.45727539 33.09838867 C42.78132324 32.75412842 42.10537109 32.40986816 41.40893555 32.05517578 C37.66221669 30.15322867 33.90049044 28.28130314 30.14086914 26.4050293 C28.58872064 25.62911797 27.03663743 24.85307604 25.48461914 24.0769043 C24.71375977 23.69147461 23.94290039 23.30604492 23.14868164 22.90893555 C17.8511556 20.26017253 12.55362956 17.61140951 7.25610352 14.96264648 C6.60794678 14.63985718 5.95979004 14.31706787 5.29199219 13.98449707 C3.88566756 13.27858097 2.48387311 12.56360409 1.08544922 11.84216309 C0.01170044 11.29175354 0.01170044 11.29175354 -1.08374023 10.73022461 C-1.73000366 10.39549133 -2.37626709 10.06075806 -3.04211426 9.71588135 C-6.31038725 8.27392555 -8.13133699 9.57794927 -11.15478516 11.10351562 Z " fill="#F6F6F6" transform="translate(676.702880859375,312.016845703125)"/>
<path d="M0 0 C2.64202186 1.23818397 5.21464287 2.57316377 7.79296875 3.93896484 C9.78026093 4.96302193 11.76857363 5.98510061 13.7578125 7.00537109 C14.77343262 7.5288916 15.78905273 8.05241211 16.83544922 8.59179688 C21.46587605 10.94481733 26.15858457 13.1599577 30.85546875 15.37646484 C40.24265154 19.83248395 49.55925234 24.42206918 58.85546875 29.06396484 C59.50435059 29.38715698 60.15323242 29.71034912 60.82177734 30.04333496 C79.45820231 39.33193197 79.45820231 39.33193197 80.85546875 42.12646484 C80.97325685 44.38195627 81.02533545 46.64096628 81.04833984 48.89941406 C81.06060608 49.94360001 81.06060608 49.94360001 81.07312012 51.00888062 C81.09796618 53.31629575 81.11448678 55.62364946 81.12890625 57.93115234 C81.13422993 58.71867008 81.1395536 59.50618782 81.1450386 60.31756973 C81.17176507 64.48481524 81.19114269 68.65203081 81.20556641 72.81933594 C81.22222554 77.12612842 81.26701429 81.43215733 81.31793785 85.73866081 C81.35156992 89.0483591 81.36313922 92.35787509 81.36879349 95.66772842 C81.37551581 97.25540131 81.39076351 98.84306179 81.4146843 100.4305687 C81.4462592 102.65259089 81.44638589 104.87253952 81.43896484 107.09472656 C81.4470517 108.35888397 81.45513855 109.62304138 81.46347046 110.92550659 C80.85546875 114.12646484 80.85546875 114.12646484 78.4705658 116.48239136 C75.98812435 118.0430662 73.55599709 119.40491911 70.8984375 120.64208984 C69.9592749 121.08423828 69.0201123 121.52638672 68.05249023 121.98193359 C67.05934814 122.44212891 66.06620605 122.90232422 65.04296875 123.37646484 C62.9539252 124.3597743 60.86538456 125.34415288 58.77734375 126.32958984 C57.75962891 126.80847656 56.74191406 127.28736328 55.69335938 127.78076172 C52.0354504 129.51531043 48.40822741 131.3050077 44.79296875 133.12646484 C44.17566895 133.43680664 43.55836914 133.74714844 42.92236328 134.06689453 C40.89935559 135.08534941 38.87742294 136.10592014 36.85546875 137.12646484 C30.42323966 140.36852576 23.98436357 143.59655966 17.53125 146.796875 C15.79485589 147.65968543 14.06035716 148.52632486 12.328125 149.39746094 C10.03125356 150.55008463 7.72625999 151.68442485 5.41796875 152.81396484 C4.75095947 153.15298828 4.0839502 153.49201172 3.39672852 153.84130859 C-1.01857835 155.96976496 -4.27855967 156.80301704 -9.14453125 156.12646484 C-12.62001379 154.78134893 -15.86087097 153.06937334 -19.14453125 151.31396484 C-21.12662406 150.28863046 -23.10972773 149.26524823 -25.09375 148.24365234 C-26.10356934 147.7199707 -27.11338867 147.19628906 -28.15380859 146.65673828 C-32.71135091 144.32476479 -37.3301017 142.12914153 -41.95703125 139.93896484 C-43.84532 139.03978767 -45.73332816 138.14002108 -47.62109375 137.23974609 C-48.6359082 136.75586426 -49.65072266 136.27198242 -50.69628906 135.7734375 C-56.99804862 132.76354866 -63.29467381 129.74318671 -69.58480835 126.70907593 C-71.07396383 125.99166769 -72.56388539 125.27584733 -74.05459595 124.56167603 C-76.15297796 123.55611107 -78.24863081 122.54505675 -80.34375 121.53271484 C-80.9719162 121.23314377 -81.6000824 120.93357269 -82.24728394 120.62492371 C-88.84721981 117.42040681 -88.84721981 117.42040681 -91.14453125 115.12646484 C-91.67938232 111.99002075 -91.67938232 111.99002075 -91.72558594 108.07226562 C-91.73902039 107.35809479 -91.75245483 106.64392395 -91.76629639 105.90811157 C-91.80431163 103.54571758 -91.81210668 101.1844582 -91.81640625 98.82177734 C-91.82925915 97.17894014 -91.84271564 95.53610756 -91.85675049 93.89328003 C-91.88070995 90.44827666 -91.88811093 87.00367457 -91.88574219 83.55859375 C-91.88533579 79.1469635 -91.939922 74.73791033 -92.00883102 70.32689095 C-92.05334535 66.93297555 -92.06141821 63.53968143 -92.05930328 60.145504 C-92.06401965 58.51955154 -92.0816928 56.89358253 -92.11263275 55.26791763 C-92.33047119 42.63887961 -92.33047119 42.63887961 -89.5859375 39.1388092 C-87.48335835 37.77909607 -85.50413104 36.95271209 -83.14453125 36.12646484 C-81.81649472 35.44486944 -80.49657855 34.74720441 -79.18554688 34.03344727 C-77.80933885 33.34549875 -76.43099695 32.66180586 -75.05078125 31.98193359 C-74.30098999 31.60845291 -73.55119873 31.23497223 -72.77868652 30.85017395 C-70.40251027 29.66761791 -68.02361815 28.4906523 -65.64453125 27.31396484 C-64.08184333 26.5376503 -62.51934202 25.76095998 -60.95703125 24.98388672 C-57.86015192 23.44406177 -54.76224547 21.90633274 -51.66357422 20.37011719 C-47.35304019 18.23186438 -43.04877724 16.08124258 -38.74609375 13.92724609 C-36.8119109 12.95988773 -34.87761503 11.99275596 -32.9432373 11.02578735 C-31.24089415 10.17464466 -29.53889377 9.3228165 -27.83691406 8.47094727 C-24.90395625 7.00982387 -21.96319954 5.56586187 -19.01953125 4.12646484 C-17.55773437 3.39363281 -17.55773437 3.39363281 -16.06640625 2.64599609 C-5.78300895 -2.35560178 -5.78300895 -2.35560178 0 0 Z M-11.79296875 12.14599609 C-12.70433594 12.58556641 -13.61570312 13.02513672 -14.5546875 13.47802734 C-15.53308594 13.96013672 -16.51148438 14.44224609 -17.51953125 14.93896484 C-18.54175781 15.43525391 -19.56398438 15.93154297 -20.6171875 16.44287109 C-28.38715482 20.22750462 -36.11596062 24.09484278 -43.83544922 27.98120117 C-53.38911422 32.78036736 -63.03888289 37.37505122 -72.70117188 41.95068359 C-75.5304693 43.31218404 -78.33617124 44.72228484 -81.14453125 46.12646484 C-81.14453125 66.91646484 -81.14453125 87.70646484 -81.14453125 109.12646484 C-69.44939372 115.28180038 -57.79864786 121.35220786 -45.89453125 127.06396484 C-44.4723527 127.74800476 -43.05023453 128.43217021 -41.62817383 129.11645508 C-39.49396625 130.14329637 -37.35960035 131.16979433 -35.22444153 132.19465637 C-30.81713212 134.3122684 -26.42765708 136.46230869 -22.046875 138.63427734 C-20.98694336 139.15513916 -19.92701172 139.67600098 -18.83496094 140.21264648 C-16.88452217 141.17153293 -14.93827046 142.13900095 -12.99707031 143.11645508 C-12.14209961 143.53354736 -11.28712891 143.95063965 -10.40625 144.38037109 C-9.67365967 144.74461182 -8.94106934 145.10885254 -8.1862793 145.48413086 C-4.02031481 146.79474339 -0.59014974 144.49271295 3.15234375 142.68505859 C4.18560791 142.18780273 5.21887207 141.69054687 6.28344727 141.17822266 C7.37971436 140.64551758 8.47598145 140.1128125 9.60546875 139.56396484 C11.29530884 138.74750488 11.29530884 138.74750488 13.01928711 137.91455078 C21.04571742 134.02803245 29.04083168 130.08328549 37.00048828 126.06201172 C40.28085315 124.40758185 43.56875391 122.7682314 46.85546875 121.12646484 C49.49546875 119.80646484 52.13546875 118.48646484 54.85546875 117.12646484 C60.13546875 114.48646484 65.41546875 111.84646484 70.85546875 109.12646484 C70.85546875 88.33646484 70.85546875 67.54646484 70.85546875 46.12646484 C59.47046875 40.68146484 59.47046875 40.68146484 47.85546875 35.12646484 C43.97148228 33.2134739 40.09446677 31.29672325 36.23046875 29.34521484 C35.30298828 28.8795813 34.37550781 28.41394775 33.41992188 27.9342041 C30.56406193 26.50035262 27.70958261 25.06378837 24.85546875 23.62646484 C21.02332177 21.69701006 17.18979418 19.77033611 13.35546875 17.84521484 C12.50130371 17.41398315 11.64713867 16.98275146 10.76708984 16.53845215 C-0.11895107 10.38489506 -0.11895107 10.38489506 -11.79296875 12.14599609 Z " fill="#F6DB8E" transform="translate(488.14453125,310.87353515625)"/>
<path d="M0 0 C1.24418187 0.64764245 2.48215508 1.30730328 3.71484375 1.9765625 C5.13030666 2.71585099 6.54704188 3.45270712 7.96484375 4.1875 C8.71894531 4.5803418 9.47304687 4.97318359 10.25 5.37792969 C14.52288619 7.55432253 18.87388261 9.5654254 23.21484375 11.6015625 C29.83481133 14.72543922 36.33479628 17.96724931 42.75439453 21.4855957 C49.54051764 25.1621026 56.53769283 28.4054271 63.53466797 31.65795898 C77.06198577 38.01120452 77.06198577 38.01120452 80.65234375 41.6015625 C80.77307188 43.81901718 80.82263543 46.04036238 80.84521484 48.26098633 C80.85748108 49.30495323 80.85748108 49.30495323 80.86999512 50.37001038 C80.89489219 52.68286263 80.91137664 54.99565331 80.92578125 57.30859375 C80.93110493 58.09702856 80.9364286 58.88546337 80.9419136 59.69779015 C80.96866494 63.87151493 80.98803274 68.04520962 81.00244141 72.21899414 C81.01908743 76.53366256 81.0638581 80.84756682 81.11481285 85.1619463 C81.14844901 88.47593577 81.16001483 91.7897432 81.16566849 95.10388756 C81.17239198 96.69435142 81.1876427 98.28480285 81.2115593 99.87510109 C81.24313679 102.10202055 81.24326021 104.32687106 81.23583984 106.55395508 C81.2439267 107.82112869 81.25201355 109.08830231 81.26034546 110.39387512 C80.65234375 113.6015625 80.65234375 113.6015625 78.25907898 115.96266174 C75.86155626 117.47002687 73.52885708 118.79379648 70.9609375 119.984375 C70.03410156 120.42040039 69.10726563 120.85642578 68.15234375 121.30566406 C67.14171875 121.77456055 66.13109375 122.24345703 65.08984375 122.7265625 C62.84760744 123.78359749 60.60680976 124.84368764 58.3671875 125.90625 C57.76566864 126.19161621 57.16414978 126.47698242 56.54440308 126.77099609 C47.59268737 131.03632149 38.74958741 135.52496772 29.89596558 139.98931885 C25.552228 142.1795342 21.20215422 144.35598571 16.84179688 146.51293945 C15.34670693 147.25631658 13.85463291 148.00578254 12.36523438 148.76049805 C10.10356902 149.9049754 7.83245651 151.02842941 5.55859375 152.1484375 C4.88235962 152.49626282 4.20612549 152.84408813 3.50939941 153.20245361 C-1.93118094 155.84159136 -6.67635008 156.65361741 -12.65307617 154.94091797 C-13.28834229 154.62010254 -13.9236084 154.29928711 -14.578125 153.96875 C-15.35889404 153.58549561 -16.13966309 153.20224121 -16.9440918 152.80737305 C-17.79914307 152.36820557 -18.65419434 151.92903809 -19.53515625 151.4765625 C-21.54548886 150.48029912 -23.55591483 149.48422411 -25.56640625 148.48828125 C-26.74589844 147.89708496 -27.92539063 147.30588867 -29.140625 146.69677734 C-34.22334244 144.156506 -39.33303258 141.67175348 -44.44140625 139.18359375 C-46.4463871 138.20657715 -48.45135111 137.229526 -50.45629883 136.25244141 C-51.46125397 135.76269836 -52.46620911 135.27295532 -53.50161743 134.76837158 C-60.17840766 131.51242629 -66.85107073 128.24815582 -73.51708984 124.97021484 C-76.43996711 123.53317924 -79.36796818 122.10897349 -82.30712891 120.70556641 C-83.93013916 119.92125244 -83.93013916 119.92125244 -85.5859375 119.12109375 C-86.92652222 118.48264526 -86.92652222 118.48264526 -88.29418945 117.83129883 C-90.34765625 116.6015625 -90.34765625 116.6015625 -92.34765625 113.6015625 C-92.62181091 110.53431702 -92.62181091 110.53431702 -92.65405273 106.71508789 C-92.66237625 106.0188179 -92.67069977 105.32254791 -92.67927551 104.60517883 C-92.70337455 102.30313531 -92.71214676 100.00137504 -92.71875 97.69921875 C-92.72771551 96.09883031 -92.73683734 94.49844273 -92.74610901 92.89805603 C-92.76260063 89.54310061 -92.77029958 86.18824501 -92.77319336 82.83325195 C-92.77858143 78.53428515 -92.81627699 74.23625612 -92.86193752 69.93755436 C-92.89167812 66.63212149 -92.89891623 63.32691544 -92.89991951 60.0213604 C-92.90412684 58.4364943 -92.91658185 56.85162784 -92.93743706 55.26689339 C-92.96429571 53.04970382 -92.95954554 50.8347008 -92.94702148 48.61743164 C-92.95209213 47.35629044 -92.95716278 46.09514923 -92.96238708 44.79579163 C-92.34765625 41.6015625 -92.34765625 41.6015625 -90.28723145 39.41520691 C-86.83574203 37.28572422 -83.34258918 35.37762056 -79.71508789 33.56738281 C-78.96321701 33.18640945 -78.21134613 32.8054361 -77.43669128 32.41291809 C-74.96354329 31.16215687 -72.48601335 29.92040382 -70.0078125 28.6796875 C-68.28046461 27.81119095 -66.55320662 26.94251557 -64.82603455 26.07366943 C-61.21110195 24.25723671 -57.59373526 22.44575799 -53.97485352 20.63720703 C-49.34066122 18.32026357 -44.71495539 15.98689661 -40.09119511 13.64921951 C-36.52907629 11.8514795 -32.96155446 10.06467865 -29.39242363 8.28090668 C-27.68447978 7.42516605 -25.97847787 6.56553799 -24.27449226 5.70194244 C-21.89174845 4.49586271 -19.5018695 3.30525027 -17.10961914 2.11816406 C-16.05972305 1.58057213 -16.05972305 1.58057213 -14.98861694 1.03211975 C-9.46114991 -1.67870648 -5.71678346 -2.38810791 0 0 Z M-12.51953125 11.3828125 C-13.38900391 11.80135498 -14.25847656 12.21989746 -15.15429688 12.65112305 C-16.12560547 13.12976807 -17.09691406 13.60841309 -18.09765625 14.1015625 C-19.13083984 14.60405518 -20.16402344 15.10654785 -21.22851562 15.62426758 C-25.27540939 17.6023924 -29.3125214 19.59958601 -33.34765625 21.6015625 C-34.27811768 22.06302673 -35.2085791 22.52449097 -36.16723633 22.99993896 C-43.73203583 26.75364968 -51.29124345 30.51850063 -58.84765625 34.2890625 C-59.94750854 34.83755859 -61.04736084 35.38605469 -62.18054199 35.95117188 C-65.33121017 37.52362923 -68.48033595 39.0991282 -71.62890625 40.67578125 C-73.07725861 41.39848457 -73.07725861 41.39848457 -74.55487061 42.13578796 C-75.4358844 42.57784073 -76.31689819 43.01989349 -77.22460938 43.4753418 C-78.38724304 44.05725533 -78.38724304 44.05725533 -79.57336426 44.65092468 C-81.31819278 45.47565322 -81.31819278 45.47565322 -82.34765625 46.6015625 C-82.44161682 48.53462748 -82.46509142 50.47115088 -82.46118164 52.40649414 C-82.46110611 53.64770523 -82.46103058 54.88891632 -82.46095276 56.16773987 C-82.45584536 57.5323999 -82.45062935 58.89705952 -82.4453125 60.26171875 C-82.44344825 61.65034433 -82.44202438 63.03897057 -82.44102478 64.42759705 C-82.43720012 68.08877365 -82.42737028 71.7499108 -82.4163208 75.41107178 C-82.40610557 79.14448513 -82.40152692 82.87790484 -82.39648438 86.61132812 C-82.38574796 93.94142427 -82.36867216 101.27148786 -82.34765625 108.6015625 C-67.53626226 116.44357012 -67.53626226 116.44357012 -52.59765625 124.0390625 C-51.70208008 124.48588379 -50.80650391 124.93270508 -49.88378906 125.39306641 C-42.05759149 129.28175071 -34.18172093 133.06476627 -26.28613281 136.81030273 C-25.3937793 137.23384033 -24.50142578 137.65737793 -23.58203125 138.09375 C-22.71384766 138.50206055 -21.84566406 138.91037109 -20.95117188 139.33105469 C-19.16829966 140.20109098 -17.4067659 141.11586564 -15.66601562 142.06738281 C-14.80298828 142.53499023 -13.93996094 143.00259766 -13.05078125 143.484375 C-12.28926758 143.91379395 -11.52775391 144.34321289 -10.74316406 144.78564453 C-6.87621178 146.10274141 -3.52829021 145.07298166 0.19563293 143.58604431 C1.0370433 143.16827225 1.87845367 142.75050018 2.74536133 142.32006836 C3.71109573 141.84544662 4.67683014 141.37082489 5.67182922 140.88182068 C6.70309433 140.36523392 7.73435944 139.84864716 8.796875 139.31640625 C9.88006516 138.78189346 10.96325531 138.24738068 12.07926941 137.69667053 C15.54482541 135.98482373 19.00497385 134.26236842 22.46484375 132.5390625 C25.87721981 130.84750481 29.29069766 129.15819221 32.70455933 127.46963501 C34.92248937 126.37256756 37.13988186 125.27441263 39.35671997 124.17514038 C46.36281323 120.70763196 53.3968505 117.31189951 60.50166321 114.05101013 C62.22752435 113.25365802 63.94058905 112.42876437 65.65234375 111.6015625 C66.53341797 111.19821686 67.41449219 110.79487122 68.32226562 110.37930298 C70.91511338 108.79739456 70.91511338 108.79739456 71.25361633 105.88703918 C71.24251328 104.79227768 71.23141022 103.69751617 71.2199707 102.56958008 C71.21959305 101.32852005 71.21921539 100.08746002 71.21882629 98.80879211 C71.1932931 97.45454915 71.16721312 96.10031641 71.140625 94.74609375 C71.131298 93.36033909 71.12418135 91.97456794 71.1191864 90.58879089 C71.10010691 86.94363786 71.0510004 83.29948306 70.9956665 79.65472412 C70.94449305 75.934667 70.92167659 72.21444836 70.89648438 68.49414062 C70.84288046 61.19615977 70.75755879 53.89900107 70.65234375 46.6015625 C58.63799902 40.19451124 46.54554132 34.00725074 34.27734375 28.1015625 C32.75506551 27.36674511 31.23284949 26.63179882 29.71069336 25.89672852 C26.72746476 24.45677767 23.74317462 23.01905628 20.75830078 21.58251953 C17.12116919 19.8304564 13.49308178 18.06037382 9.8671875 16.28515625 C7.98320585 15.36951809 6.0991034 14.45412843 4.21484375 13.5390625 C3.38227051 13.12785156 2.54969727 12.71664063 1.69189453 12.29296875 C0.93763184 11.92945313 0.18336914 11.5659375 -0.59375 11.19140625 C-1.22982178 10.88066162 -1.86589355 10.56991699 -2.52124023 10.24975586 C-6.33932815 8.89471998 -9.07447097 9.71033353 -12.51953125 11.3828125 Z " fill="#F6DB8F" transform="translate(1053.34765625,311.3984375)"/>
</svg>
